<ttFont>
          <CharString index="0">
            rmoveto
            114 vlineto
            331 -194 211 -298 -295 -196 -211 -331 vhcurveto
            -114 vlineto
            -331 198 -210 294 298 193 210 331 vhcurveto
            -118 116 rmoveto
            -116 vlineto
            -270 -136 -168 -237 -231 -142 168 270 vhcurveto
            116 vlineto
            269 140 167 232 236 138 -167 -269 vhcurveto
            endchar
          </CharString>
          <CharString index="1">
            rmoveto
            523 vlineto
            235 -163 117 -231 vhcurveto
            hintmask 10110110
            -247 -168 -156 -162 hvcurveto
            120 -1 rlineto
            121 122 98 168 180 99 -95 -155 vhcurveto
            -122 -221 vlineto
            hintmask 10111010
            -305 -188 -131 -212 -176 137 -131 212 171 123 79 92 72 hvcurveto
            hintmask 01111010
            3 -55 8 -59 13 -37 rrcurveto
            128 13 hlineto
            hintmask 10111010
            -22 50 -11 89 75 vvcurveto
            -472 -141 rmoveto
            -150 -93 94 117 150 145 91 245 hvcurveto
            205 -239 hlineto
            -119 -52 -126 -94 -174 hhcurveto
            endchar
          </CharString>
          <CharString index="2">
            rmoveto
            hintmask 11101100
            81 33 52 64 81 vvcurveto
            140 -115 77 -153 -153 -114 -77 -140 -81 52 -64 81 -32 vhcurveto
            hintmask 11110010
            -94 -33 -61 -70 -91 vvcurveto
            -148 126 -75 164 163 126 75 148 91 -61 69 -94 33 29 callgsubr
            -135 307 rmoveto
            95 68 -54 -79 -80 -67 -51 -95 -96 -67 51 80 83 67 50 95 hvcurveto
            hintmask 11110010
            1 -636 rmoveto
            -108 -77 52 89 88 77 54 107 105 80 -54 -88 -89 -78 -52 -106 hvcurveto
            endchar
          </CharString>
          <CharString index="3">
            339 287 153 320 hvcurveto
            718 -119 -710 vlineto
            -256 -230 -123 -283 -137 -151 33 59 -135 vhcurveto
            313 122 rmoveto
            103 -10 rlineto
            78 74 31 86 135 vvcurveto
            590 -120 -606 vlineto
            -126 -30 -90 -62 -53 vhcurveto
            return
          </CharString>
          <CharString index="4">
            rmoveto
            -91 -73 -40 -52 -43 hvcurveto
            187 15 124 92 191 hhcurveto
            11 90 -17 hlineto
            -269 -160 -157 -285 hvcurveto
            -68 vlineto
            -180 115 -119 178 166 107 118 152 146 -87 116 -167 vhcurveto
            -21 -445 rmoveto
            -108 -79 75 129 hvcurveto
            48 vlineto
            60 25 74 46 83 hhcurveto
            117 59 -76 -100 -100 -66 -82 -105 hvcurveto
            endchar
          </CharString>
          <CharString index="5">
            128 hlineto
            -551 -72 callgsubr
            rlineto
            -117 hlineto
            -550 -56 callgsubr
            rlineto
            128 hlineto
            150 408 rlineto
            662 hlineto
            -623 105 rmoveto
            292 794 292 -794 rlineto
            endchar
          </CharString>
          <CharString index="6">
            rmoveto
            -240 257 rlineto
            -76 hlineto
            -238 -255 rlineto
            -12 108 vlineto
            167 183 169 -183 rlineto
            110 hlineto
            return
          </CharString>
          <CharString index="7">
            rmoveto
            -191 7 callgsubr
            -145 hlineto
            227 -279 rlineto
            return
          </CharString>
          <CharString index="8">
            rmoveto
            -123 -986 hlineto
            -255 -163 -131 -227 -225 -164 131 255 vhcurveto
            986 -122 -986 vlineto
            -328 221 -162 290 284 229 162 328 vhcurveto
            endchar
          </CharString>
          <CharString index="9">
            rmoveto
            51 32 35 45 45 -32 35 -51 -52 -30 -35 -45 -45 30 -35 52 hvcurveto
            437 hmoveto
            52 31 34 45 45 -31 36 -52 -51 -31 -36 -45 -45 31 -34 51 hvcurveto
            return
          </CharString>
          <CharString index="10">
            rmoveto
            hintmask 11101100
            92 33 52 68 74 vvcurveto
            142 -110 79 -165 -154 -122 -86 -133 vhcurveto
            106 hlineto
            81 74 50 97 117 51 -59 -76 -76 -63 -59 -121 vhcurveto
            -78 -81 78 hlineto
            hintmask 11110010
            119 81 -41 -101 -88 -64 -55 -115 -111 -79 60 84 hvcurveto
            -106 hlineto
            -159 149 -72 144 164 124 82 145 93 -53 67 -107 28 vhcurveto
            endchar
          </CharString>
          <CharString index="11">
            rmoveto
            -171 -109 -127 -153 -148 94 -117 165 85 71 36 52 43 hvcurveto
            -167 -9 -94 -97 -209 hhcurveto
            -16 -87 16 hlineto
            291 128 163 264 hvcurveto
            63 vlineto
            200 -104 118 -181 vhcurveto
            -1 -460 rmoveto
            -112 -61 84 97 100 66 90 109 107 71 -70 -142 hvcurveto
            -50 vlineto
            -55 -24 -61 -54 -95 hhcurveto
            endchar
          </CharString>
          <CharString index="12">
            rmoveto
            169 -183 rlineto
            110 10 hlineto
            -240 257 rlineto
            -76 hlineto
            -238 -255 rlineto
            -12 108 vlineto
            return
          </CharString>
          <CharString index="13">
            hmoveto
            122 824 hlineto
            216 -132 127 -222 vhcurveto
            -410 -101 414 hlineto
            139 89 -90 -140 hvcurveto
            return
          </CharString>
          <CharString index="14">
            -24 callgsubr
            654 -21 rmoveto
            287 191 212 318 hvcurveto
            153 vlineto
            321 -195 202 -307 -154 -206 -31 -45 -153 vhcurveto
            25 -97 103 30 92 23 51 5 rlinecurve
            1 -4 -10 -3 -13 -5 -5 -4 rlinecurve
            -109 -68 -77 -162 1 -173 rrcurveto
            -142 vlineto
            -318 1 192 -212 285 hhcurveto
            107 vmoveto
            -214 -143 169 254 hvcurveto
            147 vlineto
            258 7 134 164 200 hhcurveto
            226 147 -163 -254 hvcurveto
            -152 vlineto
            -254 -143 -169 -214 vhcurveto
            return
          </CharString>
          <CharString index="15">
            rmoveto
            -127 513 -110 hlineto
            -397 -535 3 -67 rlineto
            399 -187 105 187 127 hlineto
            -520 89 rmoveto
            258 333 30 50 rlineto
            -383 vlineto
            endchar
          </CharString>
          <CharString index="16">
            88 -437 vlineto
            213 198 rlineto
            104 100 81 86 102 vvcurveto
            141 -103 85 -164 -178 -107 -113 -136 vhcurveto
            106 hlineto
            93 60 68 121 104 55 -56 -83 -56 -37 -63 -100 -95 vhcurveto
            -289 -283 rlineto
            -76 vlineto
            endchar
          </CharString>
          <CharString index="17">
            -101 238 hlineto
            -62 -73 -39 -143 -136 vvcurveto
            -412 vlineto
            -141 -48 -63 -128 -22 -24 2 3 -25 vhcurveto
            -101 vlineto
            -5 34 30 -3 33 hhcurveto
            177 92 99 204 hvcurveto
            423 vlineto
            139 37 137 54 70 vhcurveto
            return
          </CharString>
          <CharString index="18">
            -328 -6 115 -91 -21 24 -60 callgsubr
            hstemhm
            432 120 hintmask 10011000
            50 -6 rmoveto
            217 172 171 178 21 hvcurveto
            8 hlineto
            hintmask 00111000
            67 -343 rlineto
            -1 callgsubr
            -84 386 rlineto
            -11 52 -7 66 54 vvcurveto
            609 -389 -101 269 -604 vlineto
            hintmask 10011000
            -23 -187 -130 -157 -221 -9 rrcurveto
            -13 -13 0 3 -15 hvcurveto
            hintmask 01011000
            -115 vlineto
            hintmask 10011000
            -2 11 11 -1 11 hhcurveto
            endchar
          </CharString>
          <CharString index="19">
            rmoveto
            296 -2 186 163 318 vvcurveto
            703 -773 -101 651 -634 vlineto
            -217 -131 -122 -228 -6 vhcurveto
            -89 -1 -97 15 -115 33 -22 -95 rcurveline
            -36 120 104 -18 98 hhcurveto
            return
          </CharString>
          <CharString index="20">
            9 100 rlineto
            12 -42 -44 5 -42 hhcurveto
            -198 -121 -40 callsubr
            -135 -180 -98 180 -984 119 984 return
          </CharString>
          <CharString index="21">
            rmoveto
            594 680 105 -680 548 777 105 -900 -56 callgsubr
            905 104 vlineto
            endchar
          </CharString>
          <CharString index="22">
            rmoveto
            108 85 80 107 107 -85 84 -108 -109 -84 -84 -107 -107 84 -80 109 hvcurveto
            306 vmoveto
            68 48 -52 -67 -65 -48 -50 -68 -68 -49 51 64 67 49 52 68 hvcurveto
            return
          </CharString>
          <CharString index="23">
            299 -20 108 1280 108 hstem
            -5 callgsubr
            889 -65 callgsubr
            return
          </CharString>
          <CharString index="24">
            rmoveto
            613 vlineto
            300 -151 145 -308 vhcurveto
            -270 -101 266 hlineto
            243 98 -100 -244 hvcurveto
            -620 -670 -102 936 95 vlineto
            return
          </CharString>
          <CharString index="25">
            130 47 108 125 167 hhcurveto
            157 98 -70 -224 hvcurveto
            -705 120 705 vlineto
            285 -130 112 -215 vhcurveto
            endchar
          </CharString>
          <CharString index="26">
            21 -21 39 callsubr
            return
          </CharString>
          <CharString index="27">
            -24 callgsubr
            974 -64 callsubr
            -817 -101 131 hlineto
            -63 -87 -41 -174 1 -137 2 -176 rcurveline
            -49 92 70 -13 163 hhcurveto
            108 vlineto
            -111 -49 6 21 -46 hvcurveto
            126 vlineto
            129 36 166 55 80 vhcurveto
            456 -1482 121 hlineto
            return
          </CharString>
          <CharString index="28">
            -65 callgsubr
            559 hmoveto
            292 8 183 162 268 vvcurveto
            729 -859 -101 737 -630 vlineto
            -199 -141 -129 -212 -7 vhcurveto
            -360 -517 rmoveto
            119 869 hlineto
            111 7 67 20 64 vhcurveto
            -104 hlineto
            -24 -63 -18 -58 -121 vvcurveto
            return
          </CharString>
          <CharString index="29">
            114 23 -110 140 hhcurveto
            return
          </CharString>
          <CharString index="30">
            87 283 89 264 88 hstemhm
            80 105 -83 105 325 105 -83 105 hintmask 11110010
            504 return
          </CharString>
          <CharString index="31">
            -249 -94 207 231 hvcurveto
            42 vlineto
            229 95 209 246 164 129 -107 -175 10 vhcurveto
            114 hlineto
            return
          </CharString>
          <CharString index="32">
            38 -58 callsubr
            -38 return
          </CharString>
          <CharString index="33">
            453 102 364 102 hstem
            90 120 652 -84 callgsubr
            return
          </CharString>
          <CharString index="34">
            165 272 165 return
          </CharString>
          <CharString index="35">
            -29 -28 -37 return
          </CharString>
          <CharString index="36">
            37 29 27 36 37 -29 -92 callgsubr
            return
          </CharString>
          <CharString index="37">
            259 -20 104 1372 -20 hstem
            163 122 779 -34 callsubr
            return
          </CharString>
          <CharString index="38">
            rmoveto
            60 -597 -89 485 vlineto
            -365 -700 rlineto
            111 hlineto
            endchar
          </CharString>
          <CharString index="39">
            -112 119 114 vlineto
            106 31 78 61 83 vhcurveto
            -71 52 rlineto
            -87 -79 -53 -120 -122 vvcurveto
            return
          </CharString>
          <CharString index="40">
            rmoveto
            523 vlineto
            235 -163 117 -231 -247 -168 -156 -162 7 callsubr
            -1 rlineto
            121 122 98 168 180 99 -95 -155 vhcurveto
            -122 -221 vlineto
            return
          </CharString>
          <CharString index="41">
            87 358 87 187 90 hstem
            97 104 358 104 vstem
            409 return
          </CharString>
          <CharString index="42">
            478 -303 -76 callgsubr
            -32 callgsubr
            -31 29 -32 38 hvcurveto
            203 hmoveto
            -75 callsubr
            -37 -29 -28 -37 -31 29 -32 37 hvcurveto
            return
          </CharString>
          <CharString index="43">
            1167 rmoveto
            return
          </CharString>
          <CharString index="44">
            60 -45 callgsubr
            hstem
            91 120 726 -84 callgsubr
            return
          </CharString>
          <CharString index="45">
            398 hlineto
            374 256 261 400 hvcurveto
            134 vlineto
            399 -258 262 -363 vhcurveto
            499 -795 rmoveto
            -331 -196 -226 -312 vhcurveto
            -275 return
          </CharString>
          <CharString index="46">
            5 callsubr
            37 30 27 -28 callgsubr
            -32 38 hvcurveto
            return
          </CharString>
          <CharString index="47">
            vstem
            999 -64 callsubr
            -138 hlineto
            -301 -511 -347 511 rlineto
            -139 hlineto
            733 -1065 rlineto
            -676 -102 834 70 hlineto
            -333 482 rlineto
            return
          </CharString>
          <CharString index="48">
            87 351 82 190 90 hstem
            560 105 vstem
            129 return
          </CharString>
          <CharString index="49">
            29 -31 callsubr
            -29 28 return
          </CharString>
          <CharString index="50">
            539 -37 callsubr
            101 return
          </CharString>
          <CharString index="51">
            790 -13 vlineto
            -324 -106 rlineto
            -90 vlineto
            232 69 rlineto
            -663 vlineto
            endchar
          </CharString>
          <CharString index="52">
            72 -16 101 hstem
            137 118 650 -84 callgsubr
            return
          </CharString>
          <CharString index="53">
            3 -137 rlineto
            115 1082 hlineto
            endchar
          </CharString>
          <CharString index="54">
            -46 callgsubr
            -120 -1165 vlineto
            endchar
          </CharString>
          <CharString index="55">
            21 -50 callsubr
            hstem
            return
          </CharString>
          <CharString index="56">
            232 -20 rmoveto
            183 98 101 204 hvcurveto
            882 -379 -101 257 -772 vlineto
            -144 -61 -65 -116 -59 -52 5 8 -36 vhcurveto
            return
          </CharString>
          <CharString index="57">
            -21 -57 callsubr
            return
          </CharString>
          <CharString index="58">
            rmoveto
            -441 794 rlineto
            -146 hlineto
            526 -907 rlineto
            -549 123 549 vlineto
            526 907 rlineto
            -143 hlineto
            endchar
          </CharString>
          <CharString index="59">
            rmoveto
            -136 hlineto
            -371 -635 -371 635 rlineto
            -136 hlineto
            445 -736 rlineto
            -429 120 422 vlineto
            endchar
          </CharString>
          <CharString index="60">
            -215 -336 hvcurveto
            -21 vlineto
            -323 return
          </CharString>
          <CharString index="61">
            20 21 -21 311 102 hstem
            24 1059 vstem
            return
          </CharString>
          <CharString index="62">
            121 hintmask 10111000
            613 29 callsubr
            -156 -110 -66 -110 -72 hvcurveto
            610 -120 vlineto
            hintmask 01111000
            -1536 return
          </CharString>
          <CharString index="63">
            119 vstem
            return
          </CharString>
          <CharString index="64">
            1082 -120 -1082 vlineto
            endchar
          </CharString>
          <CharString index="65">
            -614 -25 callsubr
            177 -84 callgsubr
            return
          </CharString>
          <CharString index="66">
            11 callsubr
            vstem
            return
          </CharString>
          <CharString index="67">
            -121 -219 hvcurveto
            return
          </CharString>
          <CharString index="68">
            -21 108 1282 108 hstem
            128 123 958 -34 callsubr
            1332 703 rmoveto
            return
          </CharString>
          <CharString index="69">
            88 624 88 hstem
            76 106 340 106 vstem
            667 return
          </CharString>
          <CharString index="70">
            129 398 return
          </CharString>
          <CharString index="71">
            96 rmoveto
            -5 -28 -33 -6 -37 hhcurveto
            -74 -66 27 152 hvcurveto
            720 223 98 -223 278 return
          </CharString>
          <CharString index="72">
            220 176 90 -103 -111 45 vhcurveto
            -500 vlineto
            -115 -51 -97 -85 -165 hhcurveto
            endchar
          </CharString>
          <CharString index="73">
            123 vstem
            return
          </CharString>
          <CharString index="74">
            118 405 120 return
          </CharString>
          <CharString index="75">
            154 120 return
          </CharString>
          <CharString index="76">
            27 36 37 return
          </CharString>
          <CharString index="77">
            23 callsubr
            586 -1066 122 1066 191 101 vlineto
            return
          </CharString>
          <CharString index="78">
            592 102 hstem
            49 479 vstem
            528 592 rmoveto
            102 -479 -102 vlineto
            endchar
          </CharString>
          <CharString index="79">
            89 hstem
            62 597 vstem
            659 return
          </CharString>
          <CharString index="80">
            -1088 -14 callgsubr
            128 hstem
            return
          </CharString>
          <CharString index="81">
            -46 callgsubr
            rmoveto
            return
          </CharString>
          <CharString index="82">
            21 -21 hstem
            return
          </CharString>
          <CharString index="83">
            -24 callgsubr
            678 -416 rmoveto
            121 1583 -737 -101 616 hlineto
            return
          </CharString>
          <CharString index="84">
            18 callgsubr
            783 -65 callgsubr
            592 -36 callgsubr
            -407 return
          </CharString>
          <CharString index="85">
            1352 rmoveto
            438 81 -438 hlineto
            return
          </CharString>
          <CharString index="86">
            -218 -97 183 247 hvcurveto
            21 vlineto
            261 97 207 220 return
          </CharString>
          <CharString index="87">
            -153 -81 callgsubr
            return
          </CharString>
          <CharString index="88">
            343 281 -289 -372 -372 -281 -291 -343 hvcurveto
            return
          </CharString>
          <CharString index="89">
            194 252 hvcurveto
            21 vlineto
            return
          </CharString>
          <CharString index="90">
            305 -147 144 -311 vhcurveto
            return
          </CharString>
          <CharString index="91">
            -53 vhcurveto
            522 vlineto
            108 47 90 98 173 hhcurveto
            220 return
          </CharString>
          <CharString index="92">
            rmoveto
            367 75 -367 hlineto
            endchar
          </CharString>
          <CharString index="93">
            120 -82 119 613 119 -82 120 hintmask 11110010
            return
          </CharString>
          <CharString index="94">
            284 hlineto
            300 199 -218 -336 hvcurveto
            endchar
          </CharString>
          <CharString index="95">
            234 hlineto
            255 164 -165 -264 hvcurveto
            endchar
          </CharString>
          <CharString index="96">
            hlineto
            237 97 -101 -244 hvcurveto
            return
          </CharString>
          <CharString index="97">
            -1088 -513 128 return
          </CharString>
          <CharString index="98">
            20 callsubr
            631 return
          </CharString>
          <CharString index="99">
            103 11 callsubr
            return
          </CharString>
          <CharString index="100">
            45 32 -4 -8 33 return
          </CharString>
          <CharString index="101">
            150 79 85 return
          </CharString>
          <CharString index="102">
            914 104 hstem
            -9 callsubr
            -84 callgsubr
            return
          </CharString>
          <CharString index="103">
            -123 hlineto
            -246 -31 -124 -124 -257 hhcurveto
            return
          </CharString>
          <CharString index="104">
            -253 62 -81 68 106 vvcurveto
            110 105 91 199 return
          </CharString>
          <CharString index="105">
            122 1167 -275 -101 153 hlineto
            endchar
          </CharString>
          <CharString index="106">
            220 167 93 -97 -105 49 vhcurveto
            -528 vlineto
            return
          </CharString>
          <CharString index="107">
            318 327 423 423 -318 324 return
          </CharString>
          <CharString index="108">
            hhcurveto
            -264 -151 -229 -341 hvcurveto
            -21 vlineto
            return
          </CharString>
          <CharString index="109">
            -281 291 372 372 281 289 return
          </CharString>
          <CharString index="110">
            -6 104 -77 -60 callgsubr
            hstemhm
            249 119 return
          </CharString>
          <CharString index="111">
            135 vlineto
            -6 callsubr
            return
          </CharString>
          <CharString index="112">
            -14 callgsubr
            rmoveto
            return
          </CharString>
          <CharString index="113">
            1476 rmoveto
            return
          </CharString>
          <CharString index="114">
            vhcurveto
            120 return
          </CharString>
          <CharString index="115">
            -119 hlineto
            -188 -25 -106 -94 -214 hhcurveto
            return
          </CharString>
          <CharString index="116">
            180 99 -109 -112 hvcurveto
            121 hlineto
            return
          </CharString>
          <CharString index="117">
            -195 -252 hvcurveto
            endchar
          </CharString>
          <CharString index="118">
            hstem
            -32 callsubr
            return
          </CharString>
          <CharString index="119">
            -572 rmoveto
            -252 return
          </CharString>
          <CharString index="120">
            0 102 964 101 return
          </CharString>
          <CharString index="121">
            124 hlineto
            return
          </CharString>
          <CharString index="122">
            -597 -312 102 1772 102 hstem
            return
          </CharString>
          <CharString index="123">
            -81 callsubr
            253 122 return
          </CharString>
          <CharString index="124">
            48 -20 102 614 102 576 102 hstemhm
            return
          </CharString>
          <CharString index="125">
            53 121 122 vvcurveto
            return
          </CharString>
          <CharString index="126">
            120 hintmask 00000000
            return
          </CharString>
          <CharString index="127">
            109 120 return
          </CharString>
          <CharString index="128">
            160 hstemhm
            return
          </CharString>
          <CharString index="129">
            -77 callgsubr
            185 return
          </CharString>
          <CharString index="130">
            -65 callgsubr
            60 -64 callsubr
            -101 return
          </CharString>
          <CharString index="131">
            790 hstem
            359 105 vstem
            464 return
          </CharString>
          <CharString index="132">
            37 29 27 37 45 -33 1 -6 106 return
          </CharString>
          <CharString index="133">
            -270 178 -181 266 vhcurveto
            return
          </CharString>
          <CharString index="134">
            1 -721 rlineto
            121 718 hlineto
            return
          </CharString>
          <CharString index="135">
            -138 -90 -105 -216 hvcurveto
            endchar
          </CharString>
          <CharString index="136">
            1102 rmoveto
            return
          </CharString>
          <CharString index="137">
            rmoveto
            -218 return
          </CharString>
          <CharString index="138">
            -34 -94 rcurveline
            -55 144 132 return
          </CharString>
          <CharString index="139">
            -235 -146 -133 -161 return
          </CharString>
          <CharString index="140">
            -318 152 -214 261 return
          </CharString>
          <CharString index="141">
            -54 -99 -80 -158 hhcurveto
            endchar
          </CharString>
          <CharString index="142">
            hstem
            179 121 return
          </CharString>
          <CharString index="143">
            192 237 hvcurveto
            return
          </CharString>
          <CharString index="144">
            76 233 77 return
          </CharString>
          <CharString index="145">
            72 234 72 return
          </CharString>
          <CharString index="146">
            -42 callgsubr
            hstem
            return
          </CharString>
        <CharString name=".notdef">
          263 -555 186 90 126 90 62 89 127 89 162 89 65 151 60 91 63 89 100 -73 73 89 73 92 97 92 70 89 100 89 181 hstemhm
          251 200 89 89 -89 270 -89 89 89 208 hintmask 111111111011111110110000
          1107 2146 rmoveto
          -856 -2701 856 hlineto
          -208 2520 rmoveto
          -89 -178 -100 178 -89 -448 89 178 100 -175 89 vlineto
          267 -348 rmoveto
          -189 178 -92 -448 281 vlineto
          178 -92 rmoveto
          -89 -97 89 hlineto
          270 -165 rmoveto
          -89 -178 -189 -270 89 178 100 -178 89 vlineto
          hintmask 001011110100000110110000
          448 -162 rmoveto
          -270 -448 91 359 179 vlineto
          89 -330 rmoveto
          -305 -448 305 89 -216 270 127 -89 -62 -92 151 vlineto
          270 -467 rmoveto
          -305 -448 305 vlineto
          hintmask 111100000000000101010000
          359 -89 rmoveto
          -270 -127 270 hlineto
          89 -151 rmoveto
          -90 -86 vlineto
          -189 -126 rlineto
          275 -90 -448 90 hlineto
          189 126 rlineto
          -189 90 hlineto
          endchar
        </CharString>
        <CharString name=".null">
          -1088 endchar
        </CharString>
        <CharString name="A">
          -69 callgsubr
          hstem
          31 1218 vstem
          1121 hmoveto
          -102 callsubr
        </CharString>
        <CharString name="A.smcp">
          -46 callsubr
          960 hmoveto
          -102 callgsubr
        </CharString>
        <CharString name="AE">
          777 0 102 288 112 206 101 545 102 hstemhm
          967.5 113 -82.5 111 hintmask 00000000
          hintmask 11110100
          1122 102 rmoveto
          -26 606 rlineto
          585 101 hlineto
          hintmask 11111000
          -589 hlineto
          -23 545 rlineto
          693 102 -863 hlineto
          -881 -56 callgsubr
          rlineto
          146 hlineto
          230 390 rlineto
          hintmask 11110100
          596 hlineto
          16 -390 rlineto
          818 102 hlineto
          -1363 400 rmoveto
          hintmask 11111000
          489 829 35 -829 rlineto
          endchar
        </CharString>
        <CharString name="AE.smcp">
          485 0 101 223 102 129 101 408 101 hstemhm
          759.5 117 -107.5 116 hintmask 00000000
          hintmask 11110100
          889 101 rmoveto
          -8 454 rlineto
          526 101 hlineto
          hintmask 11111000
          -527 hlineto
          -7 408 rlineto
          610 101 -781 hlineto
          -687 -1165 rlineto
          132 hlineto
          186 324 rlineto
          hintmask 11110100
          433 hlineto
          6 -324 rlineto
          731 101 hlineto
          -1111 325 rmoveto
          hintmask 11111000
          362 631 11 -631 rlineto
          endchar
        </CharString>
        <CharString name="Aacute">
          -69 callgsubr
          hstem
          31 1218 vstem
          909 1851 -83 callgsubr
          443 -1572 rmoveto
          -102 callsubr
        </CharString>
        <CharString name="Aacute.smcp">
          -46 callsubr
          823 1564 -83 callgsubr
          368 -1285 rmoveto
          -102 callgsubr
        </CharString>
        <CharString name="Acircumflex">
          -69 callgsubr
          hstem
          31 1218 vstem
          641 1757 -95 callsubr
          647 -1574 rmoveto
          -102 callsubr
        </CharString>
        <CharString name="Acircumflex.smcp">
          -46 callsubr
          555 1470 -95 callsubr
          572 -1287 rmoveto
          -102 callgsubr
        </CharString>
        <CharString name="Adieresis">
          -69 callgsubr
          196 14 callgsubr
          343 -73 callsubr
          vstem
          425 1632 -98 callsubr
          259 -1632 rmoveto
          -102 callsubr
        </CharString>
        <CharString name="Adieresis.smcp">
          20 21 -21 311 102 932 14 callgsubr
          257 -73 callsubr
          vstem
          339 1345 -98 callsubr
          184 -1345 rmoveto
          -102 callgsubr
        </CharString>
        <CharString name="Agrave">
          -69 callgsubr
          hstem
          31 1218 vstem
          714 1572 -100 callsubr
          516 -1572 rmoveto
          -102 callsubr
        </CharString>
        <CharString name="Agrave.smcp">
          -46 callsubr
          628 1285 -100 callsubr
          441 -1285 rmoveto
          -102 callgsubr
        </CharString>
        <CharString name="Aring">
          -69 callgsubr
          93 38 callsubr
          hstem
          450 37 callsubr
          vstem
          643 1529 -85 callsubr
          478 -1835 rmoveto
          -102 callsubr
        </CharString>
        <CharString name="Aring.smcp">
          20 21 -21 311 102 829 38 callsubr
          hstem
          364 37 callsubr
          vstem
          557 1242 -85 callsubr
          403 -1548 rmoveto
          -102 callgsubr
        </CharString>
        <CharString name="Atilde">
          -69 callgsubr
          162 -26 callgsubr
          311 -25 callgsubr
          hintmask 00000000
          hintmask 11111110
          511 1708 rmoveto
          -78 callsubr
          hintmask 11110110
          -70 callgsubr
          -94 callgsubr
          hintmask 11111110
          -93 callgsubr
          hintmask 11110110
          610 -1708 rmoveto
          -102 callsubr
        </CharString>
        <CharString name="Atilde.smcp">
          20 21 -21 311 102 898 -26 callgsubr
          225 -25 callgsubr
          hintmask 00000000
          hintmask 11111100
          425 1421 rmoveto
          -78 callsubr
          hintmask 11101100
          -70 callgsubr
          -94 callgsubr
          hintmask 11111100
          -93 callgsubr
          hintmask 11101100
          535 -1421 rmoveto
          -102 callgsubr
        </CharString>
        <CharString name="B">
          167 0 104 597 103 547 105 hstemhm
          -31 callgsubr
          658 124 -71 124 hintmask 11110100
          860 760 rmoveto
          hintmask 11111000
          145 49 85 118 149 vvcurveto
          264 -180 116 -295 vhcurveto
          -430 -56 callgsubr
          492 hlineto
          hintmask 11110100
          278 188 145 265 169 -111 143 -172 38 hvcurveto
          -245 591 rmoveto
          hintmask 11111000
          233 118 -87 -186 -180 -124 -94 -215 hvcurveto
          -319 547 hlineto
          hintmask 11110100
          369 -1247 rmoveto
          -369 597 378 hlineto
          227 106 -128 -165 -189 -128 -115 -214 hvcurveto
          endchar
        </CharString>
        <CharString name="B.smcp">
          -4 0 102 449 97 414 103 hstemhm
          -32 callsubr
          550 120 -75 119 hintmask 11110100
          751 606 rmoveto
          hintmask 11111000
          124 39 69 94 117 vvcurveto
          212 -161 97 -259 vhcurveto
          -370 -1165 429 hlineto
          hintmask 11110100
          244 161 113 215 131 -90 117 -147 30 hvcurveto
          -227 456 rmoveto
          hintmask 11111000
          196 104 -67 -141 -137 -103 -69 -182 hvcurveto
          -265 414 hlineto
          hintmask 11110100
          309 -960 rmoveto
          -309 449 317 hlineto
          190 88 -98 -126 -141 -106 -84 -180 hvcurveto
          endchar
        </CharString>
        <CharString name="C">
          242 -20 104 1287 105 hstem
          132 -34 callsubr
          1215 454 rmoveto
          -4 callsubr
          -74 callgsubr
          -394 216 -263 332 320 185 178 296 30 vhcurveto
          endchar
        </CharString>
        <CharString name="C.smcp">
          57 -16 101 994 102 hstem
          20 callsubr
          vstem
          1049 367 rmoveto
          8 callsubr
          -71 callgsubr
          -319 187 -211 289 278 161 145 238 25 vhcurveto
          endchar
        </CharString>
        <CharString name="C.ss06">
          285 -21 104 1289 105 hstem
          128 124 vstem
          1272 454 rmoveto
          -123 hlineto
          -238 -36 -126 -133 -252 hhcurveto
          -285 -198 260 355 hvcurveto
          61 vlineto
          354 189 259 290 250 133 -143 -228 35 vhcurveto
          14 callsubr
          293 -36 -195 183 -311 hhcurveto
          -360 -243 -302 -418 hvcurveto
          -59 vlineto
          -417 251 -302 356 316 187 186 289 34 vhcurveto
          endchar
        </CharString>
        <CharString name="Ccedilla">
          242 -445 77 350 102 1287 105 hstemhm
          132 123 528 100 hintmask 00000000
          hintmask 11111000
          680 84 rmoveto
          -74 callgsubr
          -376 196 -256 306 -23 vhcurveto
          -26 -120 -78 callgsubr
          119 -83 41 -82 11 hvcurveto
          10 56 290 17 169 175 28 281 rlinecurve
          -4 callsubr
          endchar
        </CharString>
        <CharString name="Ccedilla.smcp">
          57 -441 77 350 99 994 102 hstemhm
          20 callsubr
          459 100 hintmask 00000000
          hintmask 11111000
          585 85 rmoveto
          -71 callgsubr
          -302 167 -205 263 -21 vhcurveto
          -26 -120 -78 callgsubr
          119 -83 41 -82 11 hvcurveto
          10 56 248 16 144 142 24 224 rlinecurve
          8 callsubr
          endchar
        </CharString>
        <CharString name="D">
          254 0 104 1247 -23 callsubr
          -56 callgsubr
          -62 callsubr
          1247 -13 callsubr
        </CharString>
        <CharString name="D.smcp">
          64 0 102 960 -23 callgsubr
          -1165 -59 callgsubr
          960 -12 callsubr
        </CharString>
        <CharString name="D.ss06">
          313 0 104 1247 105 36 callgsubr
          833 125 vstem
          597 -36 callgsubr
          -408 -56 callgsubr
          400 hlineto
          393 289 279 424 hvcurveto
          50 vlineto
          424 -291 279 -383 vhcurveto
          549 -753 rmoveto
          -355 -226 -244 -332 vhcurveto
          -275 1247 284 hlineto
          321 228 -235 -360 hvcurveto
          endchar
        </CharString>
        <CharString name="E">
          -63 callgsubr
          308 104 -86 callsubr
        </CharString>
        <CharString name="E.smcp">
          -62 callgsubr
          274 102 -86 callgsubr
        </CharString>
        <CharString name="Eacute">
          -63 callgsubr
          886 1856 -83 callgsubr
          -347 -1473 -86 callsubr
        </CharString>
        <CharString name="Eacute.smcp">
          -62 callgsubr
          801 1564 -83 callgsubr
          -296 -1183 -86 callgsubr
        </CharString>
        <CharString name="Ecircumflex">
          -63 callgsubr
          618 1762 -95 callsubr
          -143 -1475 -86 callsubr
        </CharString>
        <CharString name="Ecircumflex.smcp">
          -62 callgsubr
          533 1470 -95 callsubr
          -92 -1185 -86 callgsubr
        </CharString>
        <CharString name="Edieresis">
          77 0 104 594 105 548 105 181 21 callsubr
          -31 callgsubr
          12 -73 callsubr
          hintmask 00000000
          hintmask 11111110
          402 1637 -98 callsubr
          hintmask 11101000
          -531 -1533 -86 callsubr
        </CharString>
        <CharString name="Edieresis.smcp">
          -88 0 102 451 102 407 103 180 21 callsubr
          -32 callsubr
          -39 -73 callsubr
          hintmask 00000000
          hintmask 11110110
          317 1345 -98 callsubr
          hintmask 11101000
          -480 -1243 -86 callgsubr
        </CharString>
        <CharString name="Egrave">
          -63 callgsubr
          691 1577 -100 callsubr
          -274 -1473 -86 callsubr
        </CharString>
        <CharString name="Egrave.smcp">
          -62 callgsubr
          606 1285 -100 callsubr
          -223 -1183 -86 callgsubr
        </CharString>
        <CharString name="Eth">
          254 0 104 586 102 559 -23 callsubr
          -664 -151 -102 151 -690 -62 callsubr
          586 337 102 -337 559 -13 callsubr
        </CharString>
        <CharString name="Eth.smcp">
          64 0 102 438 102 420 -23 callgsubr
          -523 -199 -102 199 -540 -59 callgsubr
          438 292 102 -292 420 -12 callsubr
        </CharString>
        <CharString name="Euro">
          48 -21 104 480 89 165 89 466 104 hstem
          275 124 vstem
          813 83 rmoveto
          -252 -162 156 308 hvcurveto
          16 419 89 -419 165 419 89 -419 4 vlineto
          312 160 150 253 77 77 -14 -21 66 vhcurveto
          10 108 rlineto
          19 -78 -72 12 -81 hhcurveto
          -317 -219 -192 -376 hvcurveto
          -2 -191 -89 191 -165 -191 -89 191 -16 vlineto
          -376 221 -192 316 80 79 11 20 71 vhcurveto
          -10 107 rlineto
          -22 -67 -75 -12 -77 hhcurveto
          endchar
        </CharString>
        <CharString name="Euro.smcp">
          -129 -19 102 341 87 133 87 348 102 hstem
          221 -84 callgsubr
          673 83 rmoveto
          -204 -105 125 216 -20 hvcurveto
          430 87 -433 133 433 87 -430 hlineto
          223 17 103 125 207 hhcurveto
          79 65 -10 -21 67 hvcurveto
          11 102 rlineto
          19 -79 -62 12 -81 hhcurveto
          -268 -158 -165 -285 -21 hvcurveto
          -170 -87 167 -133 -167 -87 170 hlineto
          -282 24 158 -161 267 hhcurveto
          80 69 11 20 71 hvcurveto
          -14 102 rlineto
          -20 -68 -60 -11 -78 hhcurveto
          endchar
        </CharString>
        <CharString name="F">
          64 21 -21 680 106 565 18 callgsubr
          vstem
          1087 1351 rmoveto
          105 -902 -56 callgsubr
          123 680 678 106 -678 565 vlineto
          endchar
        </CharString>
        <CharString name="F.smcp">
          -100 21 -21 533 103 426 103 -41 callsubr
          934 1062 rmoveto
          103 -780 12 callgsubr
          533 576 103 -576 426 vlineto
          endchar
        </CharString>
        <CharString name="G">
          313 -20 104 503 105 679 105 hstem
          145 124 844 -65 callgsubr
          1235 174 rmoveto
          518 -513 -105 391 -376 vlineto
          -51 -42 -119 -76 -222 hhcurveto
          -278 -183 222 339 hvcurveto
          179 vlineto
          328 157 219 284 263 109 -151 -174 29 vhcurveto
          123 hlineto
          245 -32 -168 185 -324 hhcurveto
          -349 -216 -254 -400 hvcurveto
          -177 vlineto
          -407 241 -258 343 306 149 121 73 51 vhcurveto
          endchar
        </CharString>
        <CharString name="G.smcp">
          114 -16 101 379 98 517 102 hstem
          121 119 707 -44 callsubr
          1066 139 rmoveto
          423 -448 -98 329 -284 vlineto
          -38 -35 -99 -57 -184 hhcurveto
          -236 -153 169 267 hvcurveto
          133 vlineto
          257 134 168 237 220 92 -114 -135 23 vhcurveto
          -1 callgsubr
          201 -27 -145 150 -283 hhcurveto
          -300 -189 -204 -325 hvcurveto
          -131 vlineto
          -331 208 -206 298 263 131 96 59 45 vhcurveto
          endchar
        </CharString>
        <CharString name="G.ss06">
          354 -21 104 504 104 681 104 hstem
          128 124 905 -34 callsubr
          1280 173 rmoveto
          518 -514 -104 391 -376 vlineto
          -51 -40 -129 -77 -211 hhcurveto
          -310 -215 265 369 hvcurveto
          35 vlineto
          357 192 263 286 282 112 -152 -174 31 vhcurveto
          123 hlineto
          245 -33 -174 185 -341 hhcurveto
          -351 -251 -296 -430 hvcurveto
          -33 vlineto
          -436 274 -302 375 293 160 122 72 50 vhcurveto
          endchar
        </CharString>
        <CharString name="H">
          361 21 -21 698 105 653 -20 -40 callgsubr
          832 -34 callsubr
          1140 -36 callgsubr
          -653 -832 653 -123 -56 callgsubr
          123 698 832 -698 123 -72 callgsubr
          vlineto
          endchar
        </CharString>
        <CharString name="H.smcp">
          157 21 -21 525 102 11 callsubr
          696 -84 callgsubr
          970 -26 callsubr
          -538 -696 538 -120 12 callgsubr
          525 696 -525 120 -46 callgsubr
          vlineto
          endchar
        </CharString>
        <CharString name="I">
          -58 callgsubr
          335 hmoveto
          -53 callgsubr
        </CharString>
        <CharString name="I.smcp">
          -42 callsubr
          297 hmoveto
          -53 callsubr
        </CharString>
        <CharString name="Iacute">
          -58 callgsubr
          395 1856 -89 callgsubr
          -205 -1856 rmoveto
          -53 callgsubr
        </CharString>
        <CharString name="Iacute.smcp">
          -42 callsubr
          359 1564 -89 callgsubr
          -207 -1564 rmoveto
          -53 callsubr
        </CharString>
        <CharString name="Icircumflex">
          -58 callgsubr
          551 1589 -101 callsubr
          -216 -1579 rmoveto
          -53 callgsubr
        </CharString>
        <CharString name="Icircumflex.smcp">
          -42 callsubr
          515 1297 -101 callsubr
          -218 -1287 rmoveto
          -53 callsubr
        </CharString>
        <CharString name="Idieresis">
          -542 21 -21 -72 callgsubr
          -20 201 14 callgsubr
          -26 165 73 123 76 165 vstem
          56 1797 -103 callgsubr
          -158 -1797 rmoveto
          -53 callgsubr
        </CharString>
        <CharString name="Idieresis.smcp">
          -614 21 -21 1345 14 callgsubr
          -62 165 74 120 78 165 vstem
          20 1505 -103 callgsubr
          -160 -1505 rmoveto
          -53 callsubr
        </CharString>
        <CharString name="Igrave">
          -58 callgsubr
          345 1577 -100 callsubr
          99 -1577 rmoveto
          -53 callgsubr
        </CharString>
        <CharString name="Igrave.smcp">
          -42 callsubr
          309 1285 -100 callsubr
          97 -1285 rmoveto
          -53 callsubr
        </CharString>
        <CharString name="J">
          40 -20 104 1372 -20 hstem
          72 123 633 -34 callsubr
          828 -36 callgsubr
          -1022 vlineto
          -230 -140 -120 -177 -199 -117 108 210 vhcurveto
          -123 hlineto
          -286 177 -136 262 253 187 160 294 vhcurveto
          1022 vlineto
          endchar
        </CharString>
        <CharString name="J.smcp">
          -117 -16 101 hstem
          59 120 524 -24 callgsubr
          703 -26 callsubr
          -828 vlineto
          -157 -106 -95 -144 -171 -103 80 161 vhcurveto
          -120 hlineto
          -232 164 -110 230 214 157 133 220 vhcurveto
          828 vlineto
          endchar
        </CharString>
        <CharString name="K">
          204 22 callsubr
          -34 callsubr
          1106 hmoveto
          150 hlineto
          -658 808 610 648 rlineto
          -155 hlineto
          -547 -577 -198 -206 rlineto
          783 -123 -56 callgsubr
          123 522 vlineto
          205 201 rlineto
          endchar
        </CharString>
        <CharString name="K.alt">
          220 21 -21 684 105 667 -20 36 callgsubr
          vstem
          1115 hmoveto
          153 hlineto
          -642 741 599 715 rlineto
          -155 hlineto
          -564 -667 rlineto
          -193 667 -124 -56 callgsubr
          124 684 199 hlineto
          endchar
        </CharString>
        <CharString name="K.alt2">
          233 -77 callgsubr
          189 124 vstem
          1211 hmoveto
          -759 740 716 716 rlineto
          -161 hlineto
          -683 -678 rlineto
          -11 678 -124 -56 callgsubr
          124 710 hlineto
          739 -710 rlineto
          endchar
        </CharString>
        <CharString name="K.smcp">
          24 21 -21 -41 callsubr
          937 hmoveto
          149 hlineto
          -555 646 513 519 rlineto
          -152 hlineto
          -453 -446 -165 -167 rlineto
          613 -120 12 callgsubr
          406 vlineto
          172 159 rlineto
          endchar
        </CharString>
        <CharString name="L">
          -8 0 104 1352 -20 hstem
          185 124 vstem
          309 104 rmoveto
          1352 -124 -56 callgsubr
          842 104 vlineto
          endchar
        </CharString>
        <CharString name="L.smcp">
          -158 0 102 -41 callsubr
          274 102 rmoveto
          1063 -120 -1165 732 102 vlineto
          endchar
        </CharString>
        <CharString name="M">
          684 22 callsubr
          123 1156 -34 callsubr
          1587 -36 callgsubr
          -164 hlineto
          -538 -1284 -538 1284 rlineto
          -162 -56 callgsubr
          123 637 hlineto
          -11 644 540 -1281 rlineto
          95 hlineto
          543 1286 -11 -649 rlineto
          -637 123 vlineto
          endchar
        </CharString>
        <CharString name="M.smcp">
          437 21 -21 11 callsubr
          977 -44 callsubr
          1370 -26 callsubr
          -159 hlineto
          -449 -999 -450 999 rlineto
          -158 12 callgsubr
          477 hlineto
          -12 538 455 -1015 rlineto
          89 hlineto
          456 1018 -11 -541 rlineto
          -477 119 vlineto
          endchar
        </CharString>
        <CharString name="N">
          367 22 callsubr
          124 837 -34 callsubr
          1269 hmoveto
          -52 callgsubr
        </CharString>
        <CharString name="N.smcp">
          161 21 -21 11 callsubr
          701 -44 callsubr
          1094 hmoveto
          -48 callgsubr
        </CharString>
        <CharString name="Ntilde">
          367 21 -21 -72 callgsubr
          -20 162 -26 callgsubr
          185 124 86 -25 callgsubr
          78 123 hintmask 11101011
          1068 1811 rmoveto
          -94 callgsubr
          hintmask 11111111
          -93 callgsubr
          -78 callsubr
          hintmask 11101011
          -70 callgsubr
          201 -1811 rmoveto
          -52 callgsubr
        </CharString>
        <CharString name="Ntilde.smcp">
          161 21 -21 1311 -26 callgsubr
          -32 callsubr
          19 -25 callgsubr
          9 -7 callgsubr
          hintmask 11010110
          966 1524 rmoveto
          -94 callgsubr
          hintmask 11111010
          -93 callgsubr
          -78 callsubr
          hintmask 11010110
          -70 callgsubr
          hintmask 11010010
          128 -1524 rmoveto
          -48 callgsubr
        </CharString>
        <CharString name="O">
          -84 callsubr
          1260 650 -107 callgsubr
        </CharString>
        <CharString name="O.smcp">
          -73 callgsubr
          1088 525 -107 callsubr
        </CharString>
        <CharString name="O.ss06">
          373 -39 callsubr
          50 vlineto
          421 -257 303 -346 -340 -261 -303 -421 vhcurveto
          -50 26 callgsubr
          346 255 302 422 vhcurveto
          -123 52 rmoveto
          -52 vlineto
          -359 -194 -257 -284 -275 -205 257 359 vhcurveto
          52 vlineto
          356 203 258 275 283 197 -258 -356 vhcurveto
          endchar
        </CharString>
        <CharString name="OE">
          825 -21 102 -81 104 594 105 548 105 -81 101 hstemhm
          108 120 668 123 hintmask 01110110
          1019 104 rmoveto
          594 680 105 -680 548 777 105 -839 vlineto
          hintmask 10101110
          11 -95 -108 9 -110 hhcurveto
          -318 -218 -243 -353 hvcurveto
          -304 vlineto
          -353 220 -244 318 vhcurveto
          hintmask 01110110
          110 106 11 10 95 hvcurveto
          844 104 hlineto
          hintmask 10101110
          -1573 472 rmoveto
          306 vlineto
          307 162 186 254 89 85 -4 -10 78 vhcurveto
          -1266 vlineto
          -9 -77 -88 -5 -85 hhcurveto
          -254 -164 191 304 hvcurveto
          endchar
        </CharString>
        <CharString name="Oacute">
          -84 callsubr
          813 1862 -89 callgsubr
          302 -1212 -107 callgsubr
        </CharString>
        <CharString name="Oacute.smcp">
          -73 callgsubr
          717 1564 -89 callgsubr
          226 -1039 -107 callsubr
        </CharString>
        <CharString name="Ocircumflex">
          -84 callsubr
          969 1595 -101 callsubr
          291 -935 -107 callgsubr
        </CharString>
        <CharString name="Ocircumflex.smcp">
          -73 callgsubr
          873 1297 -101 callsubr
          215 -762 -107 callsubr
        </CharString>
        <CharString name="Odieresis">
          299 -20 108 1280 108 167 14 callgsubr
          -5 callgsubr
          143 -73 callsubr
          144 -65 callgsubr
          474 1803 -103 callgsubr
          349 -1153 -107 callgsubr
        </CharString>
        <CharString name="Odieresis.smcp">
          106 -16 103 990 104 164 14 callgsubr
          105 119 72 -73 callsubr
          72 118 vstem
          378 1505 -103 callgsubr
          273 -980 -107 callsubr
        </CharString>
        <CharString name="Ograve">
          -84 callsubr
          763 1583 -100 callsubr
          606 -933 -107 callgsubr
        </CharString>
        <CharString name="Ograve.smcp">
          -73 callgsubr
          667 1285 -100 callsubr
          530 -760 -107 callsubr
        </CharString>
        <CharString name="Oslash">
          -84 callsubr
          1275 1505 rmoveto
          -104 hlineto
          -106 -169 rlineto
          90 -96 -127 50 -150 hhcurveto
          -339 -227 -263 -407 hvcurveto
          -156 vlineto
          -221 67 -178 115 -117 vhcurveto
          -137 -218 rlineto
          104 hlineto
          101 161 rlineto
          -63 88 108 -34 122 hhcurveto
          345 221 262 408 hvcurveto
          156 vlineto
          189 -48 158 -86 115 vhcurveto
          -877 -618 rmoveto
          158 vlineto
          344 168 216 275 130 106 -46 -84 75 vhcurveto
          -631 -1003 rlineto
          -79 97 -44 142 176 vvcurveto
          889 158 rmoveto
          -158 vlineto
          -346 -161 -216 -283 -101 -87 29 55 -70 vhcurveto
          622 989 rlineto
          52 -92 28 -120 -141 vvcurveto
          endchar
        </CharString>
        <CharString name="Oslash.smcp">
          -73 callgsubr
          960 1028 22 callgsubr
          183 rlineto
          -103 hlineto
          -83 -124 rlineto
          61 -80 -102 33 -118 hhcurveto
          -295 -196 -211 -331 hvcurveto
          -114 vlineto
          -172 53 -139 93 -94 vhcurveto
          -124 -186 rlineto
          103 hlineto
          87 131 rlineto
          -53 77 95 -28 108 hhcurveto
          298 193 210 331 hvcurveto
          114 vlineto
          162 -46 133 -82 94 vhcurveto
          -736 -503 rmoveto
          116 vlineto
          269 140 167 232 98 80 -29 -52 62 vhcurveto
          -521 -780 rlineto
          -59 75 -32 105 129 vvcurveto
          746 hmoveto
          -270 -136 -168 -237 -87 -74 24 44 -59 vhcurveto
          517 775 rlineto
          50 -73 26 -98 -118 vvcurveto
          endchar
        </CharString>
        <CharString name="Otilde">
          299 -20 108 1280 108 133 -26 callgsubr
          -5 callgsubr
          111 -25 callgsubr
          105 122 hintmask 11101011
          1033 1822 rmoveto
          -94 callgsubr
          hintmask 11111111
          -93 callgsubr
          -78 callsubr
          hintmask 11101011
          -70 callgsubr
          227 -1172 -107 callgsubr
        </CharString>
        <CharString name="Otilde.smcp">
          106 -16 103 990 104 130 -26 callgsubr
          105 119 40 -25 callgsubr
          33 118 hintmask 11101011
          937 1524 rmoveto
          -94 callgsubr
          hintmask 11111111
          -93 callgsubr
          -78 callsubr
          hintmask 11101011
          -70 callgsubr
          151 -999 -107 callsubr
        </CharString>
        <CharString name="P">
          173 21 -21 593 105 653 18 callgsubr
          740 -34 callsubr
          681 -36 callgsubr
          -496 -56 callgsubr
          123 593 373 hlineto
          320 170 160 269 257 -170 177 -320 hvcurveto
          -758 vmoveto
          -373 653 373 hlineto
          259 108 -153 -178 -182 -108 -140 -259 hvcurveto
          endchar
        </CharString>
        <CharString name="P.smcp">
          1 21 -21 463 103 496 -8 callsubr
          618 -84 callgsubr
          586 -26 callsubr
          -432 12 callgsubr
          463 312 23 callgsubr
          209 -150 146 -276 hvcurveto
          -599 vmoveto
          -312 496 312 hlineto
          216 90 -117 -136 28 callsubr
        </CharString>
        <CharString name="Q">
          299 -20 108 1280 108 hstem
          121 124 888 -34 callsubr
          1256 650 rmoveto
          156 vlineto
          407 -223 263 -345 -340 -227 -263 -407 vhcurveto
          -156 vlineto
          -408 229 -262 340 60 56 8 15 52 vhcurveto
          296 -258 85 77 -265 231 rlineto
          178 105 104 212 280 vvcurveto
          -566 -562 rmoveto
          -275 -170 216 346 hvcurveto
          158 vlineto
          344 168 216 275 282 163 -216 -344 vhcurveto
          -158 vlineto
          -346 -161 -216 -282 vhcurveto
          endchar
        </CharString>
        <CharString name="Q.smcp">
          106 -16 103 990 104 hstem
          101 120 746 118 vstem
          1085 525 rmoveto
          114 vlineto
          331 -194 211 -299 -294 -197 -211 -331 vhcurveto
          -114 vlineto
          -331 199 -210 294 50 48 6 12 44 vhcurveto
          253 -207 81 73 -221 179 rlineto
          149 86 87 169 223 vvcurveto
          -491 -438 rmoveto
          -231 -142 168 270 hvcurveto
          116 vlineto
          269 140 167 231 237 138 -167 -269 vhcurveto
          -116 vlineto
          -270 -136 -168 -237 vhcurveto
          endchar
        </CharString>
        <CharString name="Q.ss06">
          375 -39 callsubr
          44 vlineto
          422 -257 308 -346 -340 -261 -308 -422 vhcurveto
          -44 26 callgsubr
          58 55 8 17 53 vhcurveto
          307 -252 85 77 -276 227 rlineto
          194 115 125 237 295 vvcurveto
          -601 -616 rmoveto
          -275 -205 256 360 hvcurveto
          46 vlineto
          358 203 262 275 283 197 -262 -358 vhcurveto
          -46 vlineto
          -360 -194 -256 -284 vhcurveto
          endchar
        </CharString>
        <CharString name="R">
          213 21 -21 607 104 640 105 hstem
          182 123 721 -34 callsubr
          848 632 rmoveto
          178 52 123 150 193 vvcurveto
          278 -191 151 -303 vhcurveto
          -473 -56 callgsubr
          123 607 424 hlineto
          351 -607 rlineto
          132 13 hlineto
          -907 698 rmoveto
          640 350 vlineto
          240 131 -124 -200 -166 -115 -150 -229 hvcurveto
          endchar
        </CharString>
        <CharString name="R.alt">
          260 -1 25 632 105 590 104 hstemhm
          186 124 724 124 -115 123 hintmask 11111000
          1158 235 rmoveto
          135 vlineto
          166 -62 130 -191 46 vhcurveto
          hintmask 11110100
          168 57 93 132 152 vvcurveto
          265 -173 137 -312 vhcurveto
          -495 -56 callgsubr
          124 657 400 hlineto
          hintmask 11111000
          209 115 -111 -177 hvcurveto
          -131 vlineto
          -77 14 -106 53 -55 vhcurveto
          126 25 hlineto
          -53 49 -16 80 82 vvcurveto
          hintmask 11110100
          -492 526 rmoveto
          -356 590 370 hlineto
          249 114 -111 -187 -165 -101 -127 -276 hvcurveto
          endchar
        </CharString>
        <CharString name="R.smcp">
          35 21 -21 469 101 492 103 hstem
          152 120 602 -84 callgsubr
          738 496 rmoveto
          153 44 103 116 158 vvcurveto
          223 -167 128 -262 vhcurveto
          -413 12 callgsubr
          469 354 hlineto
          293 -469 rlineto
          127 10 hlineto
          -774 560 rmoveto
          492 293 vlineto
          200 109 -100 -152 -128 -97 -112 -190 hvcurveto
          endchar
        </CharString>
        <CharString name="S">
          125 -20 104 1287 105 hstemhm
          88 124 -77 124 741 123 -114 124 hintmask 11010100
          611 685 rmoveto
          302 -85 96 -81 -161 vvcurveto
          -164 -148 -110 -229 vhcurveto
          hintmask 11100100
          -199 -221 86 246 hvcurveto
          -124 hlineto
          -308 285 -128 259 290 211 143 237 236 -175 113 -309 84 vhcurveto
          hintmask 11011000
          -294 79 -96 91 140 vvcurveto
          146 124 122 241 238 138 -140 -190 vhcurveto
          123 hlineto
          243 -193 192 -306 -287 -202 -152 -224 vhcurveto
          hintmask 11010100
          -230 183 -103 293 -82 vhcurveto
          endchar
        </CharString>
        <CharString name="S.smcp">
          -39 -16 100 995 102 hstemhm
          75 119 -79 119 618 119 -112 120 hintmask 11010100
          533 536 rmoveto
          -15 callgsubr
          vhcurveto
          hintmask 11100100
          -170 -182 66 189 hvcurveto
          -119 hlineto
          -252 245 -103 226 250 183 114 193 24 callgsubr
          hintmask 11011000
          -3 callsubr
          200 114 -105 -143 vhcurveto
          -1 callgsubr
          198 -169 152 -263 -248 -176 -122 -183 vhcurveto
          hintmask 11010100
          25 callgsubr
          endchar
        </CharString>
        <CharString name="T">
          135 21 -21 1351 105 hstem
          551 -65 callgsubr
          1172 -36 callgsubr
          -1120 -105 499 -1351 122 1351 499 hlineto
          endchar
        </CharString>
        <CharString name="T.smcp">
          -31 21 -21 1062 103 hstem
          468 -84 callgsubr
          1013 -26 callsubr
          -970 -103 425 -1062 120 1062 425 hlineto
          endchar
        </CharString>
        <CharString name="Thorn">
          127 21 -21 324 102 625 102 303 -20 hstem
          183 120 673 -84 callgsubr
          627 1153 rmoveto
          -324 303 -120 -56 callgsubr
          120 324 324 hlineto
          303 166 176 238 238 -166 177 -303 hvcurveto
          -727 vmoveto
          -324 625 324 hlineto
          248 101 -158 -157 -151 -101 -159 -248 hvcurveto
          endchar
        </CharString>
        <CharString name="Thorn.smcp">
          -99 21 -21 248 103 496 -8 callsubr
          518 -84 callgsubr
          486 950 rmoveto
          -212 215 -120 12 callgsubr
          248 212 23 callgsubr
          210 -150 145 -276 hvcurveto
          -599 vmoveto
          -212 496 212 hlineto
          216 90 -116 -137 28 callsubr
        </CharString>
        <CharString name="U">
          -70 callsubr
          1187 1456 -99 callsubr
        </CharString>
        <CharString name="U.smcp">
          -55 callsubr
          1025 1165 -97 callgsubr
        </CharString>
        <CharString name="Uacute">
          -70 callsubr
          804 1851 -89 callgsubr
          238 -395 -99 callsubr
        </CharString>
        <CharString name="Uacute.smcp">
          -55 callsubr
          709 1564 -89 callgsubr
          171 -399 -97 callgsubr
        </CharString>
        <CharString name="Ucircumflex">
          -70 callsubr
          960 1584 -101 callsubr
          227 -118 -99 callsubr
        </CharString>
        <CharString name="Ucircumflex.smcp">
          -55 callsubr
          865 1297 -101 callsubr
          160 -122 -97 callgsubr
        </CharString>
        <CharString name="Udieresis">
          259 -20 104 1372 -20 196 14 callgsubr
          163 122 98 -73 callsubr
          79 -34 callsubr
          465 1792 -103 callgsubr
          285 -336 -99 callsubr
        </CharString>
        <CharString name="Udieresis.smcp">
          72 -16 101 1260 21 callsubr
          137 118 33 -73 callsubr
          15 120 hintmask 11110100
          370 1505 rmoveto
          -52 -30 -35 -45 -45 30 -35 52 51 32 35 45 45 -32 35 -51 hvcurveto
          hintmask 11111100
          437 hmoveto
          -51 -31 -36 -45 -45 31 -34 51 52 31 34 45 45 -31 36 -52 hvcurveto
          hintmask 11110100
          218 -340 -97 callgsubr
        </CharString>
        <CharString name="Ugrave">
          -70 callsubr
          754 1572 -100 callsubr
          542 -116 -99 callsubr
        </CharString>
        <CharString name="Ugrave.smcp">
          -55 callsubr
          659 1285 -100 callsubr
          475 -120 -97 callgsubr
        </CharString>
        <CharString name="V">
          176 -77 callgsubr
          32 1201 vstem
          1099 -36 callgsubr
          -459 -1275 -8 -31 -9 31 -457 1275 rlineto
          -134 hlineto
          541 -56 callgsubr
          rlineto
          118 hlineto
          542 -72 callgsubr
          rlineto
          endchar
        </CharString>
        <CharString name="V.smcp">
          4 0 124 -103 -21 hstemhm
          25 1043 hintmask 01100000
          939 -26 callsubr
          hintmask 10100000
          -367 -953 -26 -88 -25 89 -367 952 rlineto
          -129 hlineto
          462 -1165 rlineto
          118 hlineto
          463 -46 callgsubr
          rlineto
          endchar
        </CharString>
        <CharString name="W">
          748 -77 callgsubr
          61 1722 vstem
          1657 -36 callgsubr
          -263 -1062 -47 -228 -55 218 -311 1072 rlineto
          -111 hlineto
          -316 -1072 -55 -217 -46 226 -266 1063 rlineto
          -126 hlineto
          373 -56 callgsubr
          rlineto
          118 hlineto
          337 1139 37 145 36 -145 331 -1139 rlineto
          118 hlineto
          372 -72 callgsubr
          rlineto
          endchar
        </CharString>
        <CharString name="W.smcp">
          487 0 136 -115 -21 hstemhm
          51 1480 hintmask 01100000
          1410 -26 callsubr
          -226 -876 rlineto
          hintmask 10100000
          -32 -153 -36 141 -267 888 rlineto
          -111 hlineto
          -271 -887 -36 -142 -32 152 -227 877 rlineto
          -121 hlineto
          316 -1165 rlineto
          116 hlineto
          289 935 21 86 22 -86 283 -935 rlineto
          117 hlineto
          316 -46 callgsubr
          rlineto
          endchar
        </CharString>
        <CharString name="X">
          166 -77 callgsubr
          56 1143 vstem
          628 840 rmoveto
          -410 616 rlineto
          -147 hlineto
          482 -717 -497 -739 rlineto
          146 hlineto
          426 636 424 -636 rlineto
          147 hlineto
          -497 739 482 717 rlineto
          -147 hlineto
          endchar
        </CharString>
        <CharString name="X.smcp">
          -6 -25 callsubr
          42 999 vstem
          539 683 rmoveto
          -341 482 rlineto
          -143 hlineto
          414 -575 -427 -590 rlineto
          143 hlineto
          355 496 358 -496 rlineto
          143 hlineto
          -428 590 413 575 rlineto
          -144 hlineto
          endchar
        </CharString>
        <CharString name="Y">
          139 -77 callgsubr
          550 -34 callsubr
          611 662 -49 callsubr
        </CharString>
        <CharString name="Y.smcp">
          -28 -25 callsubr
          467 -84 callgsubr
          1036 1165 -48 callsubr
        </CharString>
        <CharString name="Yacute">
          139 -77 callgsubr
          550 -34 callsubr
          735 1845 -89 callgsubr
          -269 -1183 -49 callsubr
        </CharString>
        <CharString name="Yacute.smcp">
          -28 -25 callsubr
          467 -84 callgsubr
          795 1564 -83 callgsubr
          472 -120 -48 callsubr
        </CharString>
        <CharString name="Z">
          137 0 104 1248 104 hstem
          90 1048 vstem
          239 104 rmoveto
          867 1264 rlineto
          88 -989 -104 839 vlineto
          -866 -1259 rlineto
          -93 1048 104 vlineto
          endchar
        </CharString>
        <CharString name="Z.smcp">
          -32 0 102 961 102 hstem
          76 906 vstem
          229 102 rmoveto
          727 983 rlineto
          80 -859 -102 705 vlineto
          -726 -979 rlineto
          -84 906 102 vlineto
          endchar
        </CharString>
        <CharString name="a">
          -82 callgsubr
          935 227 -106 callsubr
        </CharString>
        <CharString name="aacute">
          -82 callgsubr
          846 1535 -83 callgsubr
          320 -1029 -106 callsubr
        </CharString>
        <CharString name="acircumflex">
          -82 callgsubr
          578 1441 -95 callsubr
          524 -1031 -106 callsubr
        </CharString>
        <CharString name="acute">
          -511 -9 callgsubr
          125 336 vstem
          316 21 callgsubr
          rmoveto
          -191 -279 rlineto
          104 hlineto
          232 7 callgsubr
          endchar
        </CharString>
        <CharString name="acutecomb">
          -1088 -9 callgsubr
          -616 336 vstem
          -425 21 callgsubr
          -89 callgsubr
          endchar
        </CharString>
        <CharString name="adieresis">
          10 -20 106 -65 -21 538 92 372 100 214 21 callsubr
          101 119 -94 120 34 -73 callsubr
          -67 120 hintmask 1011110101000000
          362 1316 rmoveto
          51 32 35 45 45 -32 35 -51 -52 -30 -35 -45 -45 30 -35 52 hvcurveto
          hintmask 1011110110000000
          437 hmoveto
          52 31 34 45 45 -31 36 -52 -51 -31 -36 -45 -45 31 -34 51 hvcurveto
          hintmask 1011101101000000
          136 -1089 -67 callsubr
          hintmask 1011110101000000
          -305 -188 -131 -212 -176 137 -131 212 171 123 79 92 72 hvcurveto
          hintmask 0111110101000000
          3 -55 8 -59 13 -37 rrcurveto
          128 13 hlineto
          hintmask 1011101101000000
          -22 50 -11 89 75 vvcurveto
          hintmask 1011110101000000
          -472 -141 rmoveto
          -150 -93 94 117 150 145 91 245 hvcurveto
          205 -239 hlineto
          -119 -52 -126 -94 -174 hhcurveto
          endchar
        </CharString>
        <CharString name="ae">
          644 -20 100 456 97 -95 98 364 102 hstemhm
          86 120 -92 119 548 121 637 120 hintmask 10111011
          1659 538 rmoveto
          100 vlineto
          287 -154 177 -269 vhcurveto
          -154 1 -131 -81 -80 -132 rrcurveto
          141 -53 -124 71 -166 hhcurveto
          hintmask 11010111
          -250 -164 -137 -187 hvcurveto
          119 -12 rlineto
          131 110 103 185 168 85 -104 -176 vhcurveto
          -87 -256 vlineto
          hintmask 11011011
          -288 -151 -132 -207 -190 126 -124 229 228 140 109 99 59 hvcurveto
          -129 78 135 -79 184 hhcurveto
          204 110 78 54 57 hvcurveto
          -47 88 rlineto
          -62 -72 -102 -57 -150 hhcurveto
          -254 -109 36 callsubr
          hintmask 10111011
          28 vlineto
          334 462 rmoveto
          209 94 -148 -184 hvcurveto
          -32 -633 vlineto
          207 22 118 157 190 hhcurveto
          -778 -920 rmoveto
          -166 -86 85 125 hvcurveto
          hintmask 11011011
          131 104 115 217 vhcurveto
          254 -301 hlineto
          hintmask 10111011
          -72 -52 -134 -83 -137 hhcurveto
          endchar
        </CharString>
        <CharString name="agrave">
          -82 callgsubr
          651 1256 -100 callsubr
          393 -1029 -106 callsubr
        </CharString>
        <CharString name="alpha">
          66 -8 callgsubr
          111 121 627 -44 callsubr
          1129 95 rmoveto
          -4 -15 -15 -4 -19 hhcurveto
          -58 -44 40 148 hvcurveto
          807 -102 vlineto
          -14 -185 rlineto
          128 -68 -110 77 -158 1 callsubr
          33 callsubr
          160 112 76 121 69 vhcurveto
          -141 18 63 -56 103 hhcurveto
          33 32 3 21 32 hvcurveto
          -599 78 rmoveto
          -21 callsubr
          168 93 -127 -138 49 vhcurveto
          -410 vlineto
          -139 -52 -93 -105 -167 hhcurveto
          endchar
        </CharString>
        <CharString name="alpha.alt">
          107 -21 102 -60 -21 1000 102 hstemhm
          111 121 hintmask 00000000
          hintmask 01110000
          1077 hmoveto
          -104 540 97 542 rlineto
          -118 hlineto
          -45 -312 rlineto
          198 -60 -124 134 -197 1 callsubr
          hintmask 10110000
          33 callsubr
          201 128 138 194 57 vhcurveto
          hintmask 01110000
          49 -311 rlineto
          -91 495 rmoveto
          hintmask 10110000
          -228 -36 -106 -186 -179 hhcurveto
          -21 callsubr
          202 89 -237 -189 28 vhcurveto
          endchar
        </CharString>
        <CharString name="ampersand">
          173 -20 102 -61 -21 1375 102 hstemhm
          108 120 11 120 412 113 166 111 hintmask 00000000
          hintmask 01111110
          1232 hmoveto
          -200 233 rlineto
          84 111 45 139 169 vvcurveto
          -111 hlineto
          -130 -35 -113 -56 -91 vhcurveto
          -401 467 132 101 rlineto
          95 73 99 101 131 vvcurveto
          155 -115 131 -196 -203 -131 -128 -204 -120 63 -104 102 -125 vhcurveto
          -14 -11 rlineto
          hintmask 10110110
          -158 -121 -124 -118 -175 vvcurveto
          -233 173 -158 280 152 143 63 103 105 vhcurveto
          hintmask 01111110
          126 -146 rlineto
          -728 1149 22 callgsubr
          74 104 140 128 70 -89 -95 -99 -62 -69 -84 -62 vhcurveto
          -132 -99 rlineto
          -86 106 -48 95 86 vvcurveto
          hintmask 10110110
          202 -1067 rmoveto
          -226 -107 136 153 67 24 103 171 140 hvcurveto
          47 36 5 -5 4 -6 5 -5 rlinecurve
          406 -472 rlineto
          -94 -90 -118 -53 -121 hhcurveto
          endchar
        </CharString>
        <CharString name="ampersand.smcp">
          155 -18 103 -64 -21 1078 103 hstemhm
          121 119 -19 118 336 118 189 112 hintmask 00000000
          hintmask 01101110
          1161 hmoveto
          -194 198 rlineto
          80 102 47 127 138 vvcurveto
          -112 hlineto
          -114 -32 -99 -56 -79 vhcurveto
          -345 352 97 71 rlineto
          72 52 75 90 99 vvcurveto
          132 -105 112 -179 -175 -113 -103 -149 -111 70 -78 104 -106 vhcurveto
          -84 -61 rlineto
          hintmask 10110110
          -117 -85 -73 -79 -134 vvcurveto
          -173 144 -120 234 162 137 53 88 100 vhcurveto
          hintmask 01101110
          121 -123 rlineto
          -680 923 rmoveto
          81 58 74 108 110 60 -68 -79 -63 -40 -59 -63 -46 vhcurveto
          -92 -67 rlineto
          -84 86 -57 67 74 vvcurveto
          hintmask 10110110
          168 -838 rmoveto
          -181 -86 92 110 59 15 64 118 87 hvcurveto
          92 67 360 -366 rlineto
          -72 -83 -110 -41 -125 hhcurveto
          endchar
        </CharString>
        <CharString name="aring">
          10 -20 106 -65 -21 538 92 372 100 111 38 callsubr
          hstemhm
          101 119 -94 120 141 37 callsubr
          42 120 hintmask 1011111011100000
          580 1213 -85 callsubr
          355 -1292 rmoveto
          523 vlineto
          235 -163 117 -231 vhcurveto
          hintmask 1011110111100000
          -247 -168 -156 -162 hvcurveto
          120 -1 rlineto
          121 122 98 168 180 99 -95 -155 vhcurveto
          -122 -221 vlineto
          hintmask 1011111011100000
          -305 -188 -131 -212 -176 137 -131 212 171 123 79 92 72 hvcurveto
          hintmask 0111111011100000
          3 -55 8 -59 13 -37 rrcurveto
          128 13 hlineto
          hintmask 1011111011100000
          -22 50 -11 89 75 vvcurveto
          -472 -141 rmoveto
          -150 -93 94 117 150 145 91 245 hvcurveto
          205 -239 hlineto
          -119 -52 -126 -94 -174 hhcurveto
          endchar
        </CharString>
        <CharString name="asciicircum">
          -235 -6 callgsubr
          78 687 vstem
          765 729 rmoveto
          -299 727 rlineto
          -89 hlineto
          -299 -727 rlineto
          115 hlineto
          228 569 228 -569 rlineto
          endchar
        </CharString>
        <CharString name="asciitilde">
          315 423 107 151 107 hstem
          146 108 896 105 vstem
          1255 765 rmoveto
          -105 hlineto
          -142 -71 -93 -121 -76 -55 33 80 -87 vhcurveto
          91 -102 -78 54 -119 hhcurveto
          -188 -107 -150 -189 hvcurveto
          108 1 rlineto
          148 69 83 118 81 54 -37 -76 84 vhcurveto
          -94 106 74 -51 118 hhcurveto
          186 111 158 184 hvcurveto
          endchar
        </CharString>
        <CharString name="asterisk">
          -219 -6 callgsubr
          391 98.5 vstem
          362 1001 30 callsubr
          -301 85 -61 204 304 214 -306 86 63 -224 295 334 114 -33 102 -325 -127 9 372 rlineto
          -105 hlineto
          4 -369 -331 122 -33 -101 rlineto
          endchar
        </CharString>
        <CharString name="at">
          783 -453 89 344 86 -86 98 820 91 338 94 hstemhm
          122 100 338.52 106.06 991.42 93 hintmask 11011111
          985 1421 rmoveto
          -503 -335 -383 -560 -25 hvcurveto
          -574 -23 293 -357 507 hhcurveto
          121 155 31 58 89 hvcurveto
          -30 79 rlineto
          -48 -83 -130 -31 -118 hhcurveto
          -456 -249 345 497 24 hvcurveto
          514 25 304 335 430 hhcurveto
          496 206 -310 -504 -25 hvcurveto
          -253 -10 -97 -194 -177 hhcurveto
          -65 -109 31 214 18 hvcurveto
          50 570 rlineto
          57 -70 -64 51 -135 hhcurveto
          -216 -188 -218 -344 -31 hvcurveto
          -269 -24 95 -178 189 hhcurveto
          121 106 67 129 72 hvcurveto
          -123 26 84 -73 129 hhcurveto
          270 110 282 251 9 hvcurveto
          556 23 -257 352 -532 hhcurveto
          hintmask 10111111
          -139 -1343 rmoveto
          -137 -60 143 206 22 hvcurveto
          319 31 143 152 160 hhcurveto
          67 53 -21 -29 39 hvcurveto
          -45 -516 rlineto
          -199 -68 -109 -55 -96 hhcurveto
          endchar
        </CharString>
        <CharString name="atilde">
          10 -20 106 -65 -21 538 92 372 100 180 -26 callgsubr
          101 119 -94 120 2 89 478 120 -104 90 hintmask 0000000000000000
          hintmask 1011111011000000
          448 1392 rmoveto
          -78 callsubr
          hintmask 1011101000100000
          -70 callgsubr
          -94 callgsubr
          hintmask 1011111011000000
          -93 callgsubr
          hintmask 1011100101000000
          487 -1165 -67 callsubr
          hintmask 1011101001000000
          -305 -188 -131 -212 -176 137 -131 212 171 123 79 92 72 hvcurveto
          hintmask 0111101001000000
          3 -55 8 -59 13 -37 rrcurveto
          128 13 hlineto
          hintmask 1011100101000000
          -22 50 -11 89 75 vvcurveto
          hintmask 1011101001000000
          -472 -141 rmoveto
          -150 -93 94 117 150 145 91 245 hvcurveto
          205 -239 hlineto
          -119 -52 -126 -94 -174 hhcurveto
          endchar
        </CharString>
        <CharString name="b">
          47 6 callgsubr
          998 104 hstemhm
          155 120 632 -45 callsubr
          112 vlineto
          6 149 rlineto
          hintmask 10111000
          -104 71 113 -65 158 hhcurveto
          261 152 227 -18 callgsubr
          -151 13 callgsubr
          294 12 callsubr
          -97 -35 callgsubr
          224 93 10 callsubr
        </CharString>
        <CharString name="b.ss06">
          46 -21 105 -63 -21 998 104 hstemhm
          155 120 652 -45 callsubr
          103 vlineto
          12 153 rlineto
          hintmask 10111000
          -108 72 113 -66 160 hhcurveto
          261 172 228 324 hvcurveto
          21 vlineto
          335 -171 13 callgsubr
          314 -571 rmoveto
          -253 -117 -35 callgsubr
          220 117 -191 -255 hvcurveto
          endchar
        </CharString>
        <CharString name="backslash">
          -281 -6 callgsubr
          49 725 vstem
          49 -36 callgsubr
          608 -1581 rlineto
          117 hlineto
          -608 1581 rlineto
          endchar
        </CharString>
        <CharString name="bar">
          -635 -6 callgsubr
          178 102 vstem
          280 -270 rmoveto
          1726 -102 -1726 vlineto
          endchar
        </CharString>
        <CharString name="braceleft">
          -411 543 105 hstem
          300 -44 callsubr
          419 59 rmoveto
          226 vlineto
          140 -54 118 -128 52 vhcurveto
          128 53 54 117 140 vvcurveto
          227 vlineto
          182 67 148 178 56 vhcurveto
          -27 79 rlineto
          -258 -77 -79 -178 -210 vvcurveto
          -227 vlineto
          -157 -68 -100 -163 vhcurveto
          -105 vlineto
          163 68 -101 -157 hvcurveto
          -226 vlineto
          -210 79 -177 258 -77 vhcurveto
          30 80 rlineto
          -178 59 -70 142 183 vvcurveto
          endchar
        </CharString>
        <CharString name="braceright">
          -411 543 105 hstem
          257 -44 callsubr
          376 905 rmoveto
          227 vlineto
          210 -78 178 -259 77 vhcurveto
          -26 -79 rlineto
          177 -56 67 -148 -182 vvcurveto
          -227 vlineto
          -144 58 -117 135 -49 vhcurveto
          -135 -49 -58 -117 -144 vvcurveto
          -226 vlineto
          -183 -71 -142 -176 -59 vhcurveto
          29 -80 rlineto
          259 77 78 177 210 vvcurveto
          226 vlineto
          157 68 101 163 vhcurveto
          105 vlineto
          -163 -68 100 157 hvcurveto
          endchar
        </CharString>
        <CharString name="bracketleft">
          15 callsubr
          164 -84 callgsubr
          494 1562 rmoveto
          102 -330 -1976 330 102 -210 1772 vlineto
          endchar
        </CharString>
        <CharString name="bracketright">
          15 callsubr
          211 -84 callgsubr
          1 1664 rmoveto
          -102 210 -1772 -210 -102 330 1976 vlineto
          endchar
        </CharString>
        <CharString name="brokenbar">
          -643 -6 callgsubr
          160 -84 callgsubr
          280 698 rmoveto
          758 -120 -758 vlineto
          -968 vmoveto
          120 771 -120 hlineto
          endchar
        </CharString>
        <CharString name="bullet">
          -425 541 390 hstem
          147 371 vstem
          147 752 rmoveto
          -35 vlineto
          -102 71 -74 114 115 71 74 102 vhcurveto
          35 vlineto
          103 -71 76 -116 -113 -71 -75 -104 vhcurveto
          endchar
        </CharString>
        <CharString name="c">
          -32 -45 callgsubr
          hstem
          95 -44 callsubr
          858 335 rmoveto
          -17 callgsubr
          -76 callsubr
          235 -10 -175 149 -232 hhcurveto
          -301 -159 -236 -304 hvcurveto
          -42 vlineto
          -304 158 -236 304 220 185 148 207 10 vhcurveto
          endchar
        </CharString>
        <CharString name="c.ss06">
          -20 -8 callgsubr
          96 -84 callgsubr
          870 335 rmoveto
          -165 -11 -139 -89 -151 hhcurveto
          -248 -105 208 231 hvcurveto
          42 vlineto
          229 106 209 246 163 129 -107 -175 10 vhcurveto
          115 hlineto
          235 -10 -176 149 -231 hhcurveto
          -302 -170 -236 -304 hvcurveto
          -42 vlineto
          -304 170 -237 303 220 186 149 207 10 vhcurveto
          endchar
        </CharString>
        <CharString name="ccedilla">
          -32 -445 77 351 99 -80 -21 1019 102 hstemhm
          95 119 430 100 hintmask 00000000
          hintmask 11011100
          557 82 rmoveto
          -76 callsubr
          235 -10 -175 149 -232 hhcurveto
          -301 -159 -236 -304 hvcurveto
          -42 vlineto
          -283 137 -224 264 -30 vhcurveto
          -27 -121 -78 callgsubr
          hvcurveto
          hintmask 10111100
          119 -83 41 -82 11 vhcurveto
          9 56 206 13 168 144 10 197 rlinecurve
          -114 hlineto
          hintmask 11011100
          -17 callgsubr
          endchar
        </CharString>
        <CharString name="cedilla">
          -589 -435 77 293 65 hstem
          300 100 vstem
          246 hmoveto
          -93 hlineto
          -28 -128 -78 callgsubr
          119 -83 41 -82 11 hvcurveto
          endchar
        </CharString>
        <CharString name="cent">
          27 -16 98 -78 -21 1017 98 hstemhm
          120 119 278 19 callsubr
          hintmask 10111000
          582 82 rmoveto
          -76 callsubr
          -9 215 -148 143 -203 23 rrcurveto
          219 -120 -220 vlineto
          -260 -30 -137 -224 -282 vvcurveto
          -42 vlineto
          -282 136 -223 261 -31 vhcurveto
          -229 120 vlineto
          hintmask 01111000
          228 vlineto
          195 22 156 141 9 189 rrcurveto
          -114 hlineto
          hintmask 10111000
          -17 callgsubr
          endchar
        </CharString>
        <CharString name="circumflex">
          -208 1259 267 hstem
          161 554 vstem
          715 1269 -101 callsubr
          endchar
        </CharString>
        <CharString name="colon">
          -658 -9 165 758 165 hstem
          127 170 vstem
          213 1079 rmoveto
          -87 callgsubr
          -2 -923 rmoveto
          -87 callgsubr
          endchar
        </CharString>
        <CharString name="comma">
          -695 -273 462 hstem
          154 118 vstem
          272 49 -43 callgsubr
        </CharString>
        <CharString name="copyright">
          550 -21 87 227 91 690 90 226 86 hstem
          107 86 281 100 449 99 319 86 vstem
          817 6 callsubr
          -391 -319 -324 -423 -423 319 -327 391 392 0 callsubr
          -392 hvcurveto
          -1410 vmoveto
          -343 2 callsubr
          343 -19 callsubr
          305 541 rmoveto
          -99 hlineto
          -157 -76 -66 -140 -150 -83 126 170 vhcurveto
          98 vlineto
          168 83 128 150 140 77 -70 -153 vhcurveto
          99 hlineto
          209 -124 104 -192 -202 -131 -158 -229 vhcurveto
          -97 vlineto
          -230 131 -157 202 192 123 104 210 vhcurveto
          endchar
        </CharString>
        <CharString name="crossbar">
          -223 37 callgsubr
          126 611 vstem
          737 38 callgsubr
          -611 -102 vlineto
          endchar
        </CharString>
        <CharString name="currency">
          393 -20 111 1032 111 -56 -20 hstemhm
          145 113 963 114 hintmask 10111000
          1335 608 rmoveto
          152 -49 137 -81 106 vhcurveto
          171 175 -87 87 -169 -172 rlineto
          hintmask 11011000
          89 -103 -132 52 -145 hhcurveto
          -144 -131 -52 -88 -103 hvcurveto
          hintmask 10111000
          -167 170 -85 -86 168 -172 rlineto
          -83 -107 -50 -137 -154 vvcurveto
          -147 46 -134 78 -105 vhcurveto
          -159 -162 85 -86 155 158 rlineto
          -95 104 137 -57 149 hhcurveto
          150 137 57 96 105 hvcurveto
          157 -160 87 87 -162 165 rlineto
          76 105 45 132 146 vvcurveto
          -595 -517 rmoveto
          -265 -217 231 286 hvcurveto
          hintmask 11011000
          285 217 230 265 264 217 -230 -285 vhcurveto
          hintmask 10111000
          -286 -217 -231 -264 vhcurveto
          endchar
        </CharString>
        <CharString name="d">
          50 6 callgsubr
          998 104 hstemhm
          -9 callsubr
          120 hintmask 10111000
          860 -20 callgsubr
          -160 -47 callsubr
          160 -227 255 156 111 63 102 71 vhcurveto
          hintmask 01111000
          6 -145 rlineto
          112 21 callgsubr
          hlineto
          hintmask 10111000
          -433 -1452 30 callsubr
          -100 -18 callsubr
          252 100 195 -34 callgsubr
        </CharString>
        <CharString name="d.ss06">
          57 -21 105 -63 -21 998 104 hstemhm
          35 callgsubr
          120 hintmask 10111000
          867 -20 callgsubr
          -180 -47 callsubr
          180 -228 255 157 112 64 104 71 vhcurveto
          hintmask 01111000
          9 -147 rlineto
          107 21 callgsubr
          hlineto
          hintmask 10111000
          -433 -1452 30 callsubr
          -120 -18 callsubr
          256 120 191 -34 callgsubr
        </CharString>
        <CharString name="degree">
          -314 980 91 315 90 hstem
          143 90 308 89 vstem
          389 6 callsubr
          -135 -111 -113 -136 -138 111 -109 135 132 109 109 138 136 -109 113 -132 hvcurveto
          -405 vmoveto
          -87 -69 66 90 91 69 68 87 87 65 -68 -91 -90 -65 -66 -87 hvcurveto
          endchar
        </CharString>
        <CharString name="dieresis">
          -207 1317 14 callgsubr
          138 -73 callsubr
          vstem
          220 1477 -103 callgsubr
          endchar
        </CharString>
        <CharString name="divide">
          76 210 165 269 117 246 165 hstem
          495 171 vstem
          580 1172 rmoveto
          -53 -32 -37 -47 -45 32 -36 53 53 33 36 45 47 -33 37 -53 hvcurveto
          490 -528 rmoveto
          117 -998 -117 vlineto
          508 -269 rmoveto
          -53 -32 -37 -46 -46 32 -36 53 53 33 36 46 46 -33 37 -53 hvcurveto
          endchar
        </CharString>
        <CharString name="dollar">
          48 -208 293 -104 104 -84 -21 22 -21 1390 104 -104 306 hstemhm
          116 119 -68 120 249 102 -99 102 251 119 -109 119 hintmask 0001100101010000
          1021 361 rmoveto
          239 -154 97 -251 84 vhcurveto
          -266 89 -63 81 147 vvcurveto
          148 95 125 206 vhcurveto
          hintmask 0001100101100000
          197 107 -146 -197 hvcurveto
          -1 callgsubr
          270 -138 156 -232 21 vhcurveto
          hintmask 0001010101010000
          202 -102 vlineto
          hintmask 0100100101010000
          -202 vlineto
          -228 -18 -144 -144 -218 vvcurveto
          -238 155 -101 253 -82 vhcurveto
          246 -85 81 -83 -147 vvcurveto
          -152 -119 -122 -202 vhcurveto
          hintmask 0100101001010000
          -161 -185 76 258 hvcurveto
          -119 hlineto
          hintmask 0010101010010000
          -308 207 -117 213 -14 vhcurveto
          hintmask 1000100110010000
          -188 102 vlineto
          hintmask 0001100110010000
          189 vlineto
          hintmask 0001100101010000
          233 19 150 138 223 vvcurveto
          endchar
        </CharString>
        <CharString name="dollar.smcp">
          -39 -14 98 995 101 hstemhm
          75 119 -79 119 260 102 256 119 -112 120 hintmask 11011010
          979 291 rmoveto
          24 callgsubr
          -3 callsubr
          vhcurveto
          hintmask 11011100
          200 114 -105 -143 hvcurveto
          -1 callgsubr
          183 -145 144 -230 21 vhcurveto
          216 -102 -215 vlineto
          -224 -14 -155 -118 -172 vvcurveto
          25 callgsubr
          hintmask 11101010
          -15 callgsubr
          -170 -182 66 189 vhcurveto
          -119 hlineto
          -233 209 -105 210 -15 vhcurveto
          -223 102 223 vlineto
          hintmask 11011010
          224 14 159 111 180 vvcurveto
          endchar
        </CharString>
        <CharString name="dotlessi">
          -41 callgsubr
          288 hmoveto
          -43 callsubr
        </CharString>
        <CharString name="e">
          -29 -20 101 -74 callsubr
          982 534 -105 callgsubr
        </CharString>
        <CharString name="e.ss07">
          -29 -21 102 -74 callsubr
          982 534 rmoveto
          102 vlineto
          278 -153 188 -275 -247 -217 -210 -328 vhcurveto
          -54 vlineto
          -308 210 -223 293 174 107 63 67 68 vhcurveto
          -43 83 rlineto
          -72 -82 -96 -39 -123 hhcurveto
          -232 -156 36 callsubr
          24 vlineto
          344 466 rmoveto
          203 105 -153 -182 hvcurveto
          -29 -648 vlineto
          219 23 132 145 185 hhcurveto
          endchar
        </CharString>
        <CharString name="eacute">
          -29 -20 101 -74 callsubr
          833 1535 -83 callgsubr
          380 -722 -105 callgsubr
        </CharString>
        <CharString name="ecircumflex">
          -29 -20 101 -74 callsubr
          565 1441 -95 callsubr
          584 -724 -105 callgsubr
        </CharString>
        <CharString name="edieresis">
          -29 -20 101 453 102 364 102 214 21 callsubr
          90 120 57 -73 callsubr
          -7 120 hintmask 11111101
          349 1316 rmoveto
          51 32 35 45 45 -32 35 -51 -52 -30 -35 -45 -45 30 -35 52 hvcurveto
          hintmask 11111110
          437 hmoveto
          52 31 34 45 45 -31 36 -52 -51 -31 -36 -45 -45 31 -34 51 hvcurveto
          hintmask 11111101
          196 -782 -105 callgsubr
        </CharString>
        <CharString name="egrave">
          -29 -20 101 -74 callsubr
          638 1256 -100 callsubr
          453 -722 -105 callgsubr
        </CharString>
        <CharString name="eight">
          17 callsubr
          106 -14 callsubr
          757 -95 callgsubr
        </CharString>
        <CharString name="eight.frac">
          653 -77 callsubr
          1069 -105 callsubr
        </CharString>
        <CharString name="eight.smcp">
          -63 -16 101 461 102 431 102 hstemhm
          93 119 -86 120 533 120 -87 120 hintmask 11110010
          694 598 rmoveto
          hintmask 11101100
          124 47 81 96 122 vvcurveto
          205 -168 113 -220 -220 -165 -113 -205 -121 80 -96 124 -47 vhcurveto
          hintmask 11110010
          -143 -48 -94 -104 -136 vvcurveto
          -215 182 -112 238 234 185 112 215 135 -95 105 -143 47 29 callgsubr
          -448 263 rmoveto
          135 110 83 155 153 115 -90 -128 -130 -113 -83 -153 -156 -111 83 130 vhcurveto
          hintmask 11110010
          267 -776 rmoveto
          -176 -125 83 146 140 125 92 174 172 129 -92 -140 -146 -127 -83 -172 hvcurveto
          endchar
        </CharString>
        <CharString name="eight.sup">
          -11 -77 callsubr
          405 -105 callsubr
        </CharString>
        <CharString name="eight.tnum">
          17 callsubr
          104 -14 callsubr
          755 -95 callgsubr
        </CharString>
        <CharString name="ellipsis">
          225 -9 165 hstem
          167 170 240 170 222 170 vstem
          251 156 rmoveto
          -87 callgsubr
          410 hmoveto
          -87 callgsubr
          392 hmoveto
          -87 callgsubr
          endchar
        </CharString>
        <CharString name="emdash">
          492 37 callgsubr
          127 1336 vstem
          1463 38 callgsubr
          -1336 -102 vlineto
          endchar
        </CharString>
        <CharString name="endash">
          246 37 callgsubr
          159 1002 vstem
          1161 38 callgsubr
          -1002 -102 vlineto
          endchar
        </CharString>
        <CharString name="equal">
          45 418 106 305 106 hstem
          150 834 vstem
          984 829 rmoveto
          106 -834 -106 vlineto
          834 -411 rmoveto
          106 -834 -106 vlineto
          endchar
        </CharString>
        <CharString name="eth">
          104 -20 104 777 104 210 -20 320 -20 hstem
          150 120 666 -44 callsubr
          811 1304 rmoveto
          179 111 -51 73 -195 -121 -110 94 -138 70 -161 48 rlinecurve
          -38 -104 126 -40 118 -55 99 -77 rlinecurve
          -206 -128 50 -74 226 140 104 -103 75 -135 31 -181 rlinecurve
          88 -78 -122 55 -132 hhcurveto
          -264 -174 -190 -309 -271 191 -215 275 255 184 226 329 hvcurveto
          89 vlineto
          289 -86 225 -158 166 vhcurveto
          125 -769 rmoveto
          -260 -122 -191 -194 -225 -125 193 189 230 111 165 229 177 106 -90 -90 42 vhcurveto
          1 -18 0 -18 -19 vvcurveto
          endchar
        </CharString>
        <CharString name="exclam">
          -626 -9 160 1305 -20 hstemhm
          154 165 -148.5 117 hintmask 11010000
          284 406 rmoveto
          7 1050 rlineto
          -124 hlineto
          7 -1050 rlineto
          hintmask 11100000
          62 -255 -29 callgsubr
        </CharString>
        <CharString name="exclamdown">
          -635 942 21 callsubr
          141 165 -134.5 117.5 hintmask 00000000
          hintmask 11000000
          224 942 rmoveto
          51 31 36 45 44 -31 35 -51 -52 -31 -35 -44 -45 31 -36 52 hvcurveto
          hintmask 10100000
          -49 -252 rmoveto
          -7 -1050 rlineto
          14 callsubr
          -6 1050 rlineto
          endchar
        </CharString>
        <CharString name="f">
          -410 -54 callgsubr
          vstem
          571 1452 rmoveto
          -7 callsubr
          hvcurveto
          -87 callsubr
          259 98 -259 4 callsubr
          130 vhcurveto
          endchar
        </CharString>
        <CharString name="f_f">
          268 -54 callgsubr
          559 -44 callsubr
          243 1217 rmoveto
          -135 -180 -98 180 -984 119 984 259 98 -259 4 callsubr
          130 -7 callsubr
          vhcurveto
          9 100 rlineto
          12 -42 -44 5 -42 hhcurveto
          -198 -121 -40 callsubr
          1006 235 rmoveto
          -7 callsubr
          hvcurveto
          -87 callsubr
          259 98 -259 4 callsubr
          130 vhcurveto
          endchar
        </CharString>
        <CharString name="f_f_i">
          608 21 -21 984 98 366 109 -105 105 hstemhm
          243 119 461 120 461 119 hintmask 11101110
          943 -30 callgsubr
          -92 20 -89 1 callgsubr
          -461 135 vlineto
          hintmask 11011110
          -6 callsubr
          130 -7 callsubr
          vhcurveto
          -87 callsubr
          461 -984 120 984 254 98 -254 vlineto
          461 hmoveto
          -1082 119 1082 vlineto
          endchar
        </CharString>
        <CharString name="f_f_l">
          608 -54 callgsubr
          461 120 461 -44 callsubr
          1150 1557 rmoveto
          -206 -121 -40 callsubr
          -135 -461 4 callsubr
          130 -7 callsubr
          vhcurveto
          -87 callsubr
          461 -984 120 984 258 98 -258 4 callsubr
          136 72 82 -12 -18 92 vhcurveto
          -1422 119 1496 vlineto
          31 -130 -151 30 -92 hhcurveto
          endchar
        </CharString>
        <CharString name="f_l">
          27 -54 callgsubr
          461 -84 callgsubr
          569 1557 rmoveto
          -205 -121 -40 callsubr
          -135 -180 -98 180 -984 119 984 259 98 -259 4 callsubr
          136 73 81 -12 -18 92 vhcurveto
          -1422 120 1496 vlineto
          31 -131 -151 30 -92 hhcurveto
          endchar
        </CharString>
        <CharString name="fi">
          13 21 -21 984 98 366 109 hstem
          228 120 461 -84 callgsubr
          348 -30 callgsubr
          -91 20 -90 1 callgsubr
          -179 -98 179 -984 120 984 254 98 -254 vlineto
          461 hmoveto
          20 callgsubr
          1082 vlineto
          endchar
        </CharString>
        <CharString name="five">
          48 -20 102 743 109 411 111 hstem
          927 -84 callgsubr
          219 747 rmoveto
          94 -27 rlineto
          64 71 71 41 139 hhcurveto
          214 119 -157 -206 -242 -109 -138 -207 -190 -116 105 196 -22 hvcurveto
          -115 hlineto
          -273 24 188 -130 231 hhcurveto
          303 133 205 279 290 -172 180 -260 -121 -103 -45 -36 -50 hvcurveto
          52 492 rlineto
          625 111 -728 hlineto
          endchar
        </CharString>
        <CharString name="five.frac">
          653 -59 callsubr
          1062 -100 callgsubr
        </CharString>
        <CharString name="five.smcp">
          -63 -16 101 562 102 308 108 hstem
          824 -84 callgsubr
          177 593 rmoveto
          94 -26 rlineto
          47 64 58 33 132 hhcurveto
          191 108 -111 -162 -180 -88 -109 -195 -146 -115 77 147 -18 hvcurveto
          -117 hlineto
          -217 19 185 -108 192 hhcurveto
          281 122 169 219 234 -163 143 -235 -112 -90 -35 -26 -44 hvcurveto
          47 369 rlineto
          566 108 -666 hlineto
          endchar
        </CharString>
        <CharString name="five.sup">
          -11 -59 callsubr
          398 -100 callgsubr
        </CharString>
        <CharString name="five.tnum">
          43 endchar
        </CharString>
        <CharString name="four">
          48 21 -21 368 102 986 -20 hstem
          752 -84 callgsubr
          1099 470 rmoveto
          -227 986 -131 hlineto
          -673 -1019 rlineto
          -69 684 -368 120 368 227 vlineto
          -884 102 rmoveto
          484 739 53 92 rlineto
          -831 vlineto
          endchar
        </CharString>
        <CharString name="four.frac">
          851 -27 callgsubr
          940 -92 callsubr
        </CharString>
        <CharString name="four.smcp">
          -63 21 -21 287 102 hstem
          671 -84 callgsubr
          991 389 rmoveto
          -200 776 -130 hlineto
          -601 -805 2 -73 rlineto
          609 -287 120 287 200 hlineto
          -791 102 rmoveto
          421 545 50 84 rlineto
          -629 vlineto
          endchar
        </CharString>
        <CharString name="four.sup">
          21 -21 187 -27 callgsubr
          276 -92 callsubr
        </CharString>
        <CharString name="four.tnum">
          140 endchar
        </CharString>
        <CharString name="fraction">
          -170 121 1186 hstem
          62 786 vstem
          137 121 -13 callgsubr
          endchar
        </CharString>
        <CharString name="g">
          49 -432 102 310 104 -5 callsubr
          868 1082 rmoveto
          -5 -155 rlineto
          110 -72 -110 65 -155 hhcurveto
          -260 -157 -47 callsubr
          158 -227 257 154 111 61 100 71 vhcurveto
          -126 vlineto
          -217 -117 -128 -204 -116 -100 47 109 -87 vhcurveto
          -67 -73 rlineto
          -123 87 155 -62 135 hhcurveto
          263 171 169 282 hvcurveto
          1063 vlineto
          -433 -998 30 callsubr
          -100 -18 callsubr
          252 100 195 -35 callsubr
        </CharString>
        <CharString name="g.alt">
          -9 -438 101 422 102 205 102 489 99 -82 102 hstemhm
          60 120 -60 120 -40 111 501 120 -42 120 hintmask 0000000000000000
          hintmask 1111000101000000
          619 187 rmoveto
          -181 hlineto
          -66 -61 20 77 62 39 41 34 25 hvcurveto
          -13 44 48 -7 52 hhcurveto
          hintmask 1111001010000000
          237 167 154 185 hvcurveto
          22 vlineto
          90 -33 80 -59 60 vhcurveto
          171 hlineto
          -2 99 rlineto
          -338 hlineto
          hintmask 1110101010000000
          13 -44 -49 7 -52 hhcurveto
          -237 -169 -147 -202 hvcurveto
          -22 vlineto
          -119 70 -106 113 -60 vhcurveto
          hintmask 1111000110000000
          -51 -40 -52 -58 -91 vvcurveto
          -62 26 -42 40 -28 vhcurveto
          hintmask 1111010001000000
          -109 -50 -97 -95 -137 vvcurveto
          -153 150 -128 284 330 186 182 153 vhcurveto
          hintmask 1111000101000000
          196 -156 94 -235 vhcurveto
          hintmask 1110101010000000
          -379 566 rmoveto
          131 114 116 172 173 113 -116 -131 vhcurveto
          -22 vlineto
          -117 -111 -120 -173 -175 -113 120 117 vhcurveto
          hintmask 1111010001000000
          254 -1068 rmoveto
          -216 -98 90 108 105 86 94 103 28 hvcurveto
          -2 17 17 -1 17 hhcurveto
          199 hlineto
          196 75 -77 -111 -104 -141 -130 -255 hvcurveto
          endchar
        </CharString>
        <CharString name="g.ss06">
          55 -432 102 309 105 914 104 hstem
          35 callgsubr
          -84 callgsubr
          885 1082 rmoveto
          -12 -161 rlineto
          114 -72 -111 67 -157 hhcurveto
          -260 -177 -47 callsubr
          177 -228 258 153 111 62 100 72 vhcurveto
          -99 vlineto
          -234 -105 -138 -217 -112 -98 28 49 -88 vhcurveto
          -36 -92 rlineto
          -58 96 138 -29 102 hhcurveto
          278 162 179 299 hvcurveto
          1036 vlineto
          -434 -998 30 callsubr
          -119 -18 callsubr
          256 119 191 220 177 90 -103 -111 45 vhcurveto
          -500 vlineto
          -115 -51 -98 -85 -165 hhcurveto
          endchar
        </CharString>
        <CharString name="g.ss07">
          49 -432 102 309 105 -5 callsubr
          879 1082 rmoveto
          -13 -161 rlineto
          114 -71 -111 67 -158 hhcurveto
          -260 -157 28 callgsubr
          158 -222 257 154 111 62 100 71 vhcurveto
          -108 vlineto
          -229 -104 -134 -217 -106 -91 24 44 -84 vhcurveto
          -35 -96 rlineto
          -49 91 129 -25 98 hhcurveto
          278 161 175 294 hvcurveto
          1045 vlineto
          -433 -998 30 callsubr
          -100 188 253 hvcurveto
          21 vlineto
          255 100 197 -35 callsubr
        </CharString>
        <CharString name="germandbls">
          113 -21 102 -60 -21 1443 101 hstemhm
          152 119 342 120 6 118 120 -7 callgsubr
          hintmask 01110110
          271 hmoveto
          1128 vlineto
          223 97 92 155 116 100 -83 -129 vhcurveto
          -167 -126 -54 -183 vvcurveto
          hintmask 10111010
          -259 364 -51 -210 vvcurveto
          -123 -98 -103 -173 -99 -110 44 36 -49 vhcurveto
          -33 -101 rlineto
          -42 52 140 -39 113 hhcurveto
          194 182 113 215 hvcurveto
          265 -363 57 196 173 124 38 201 vvcurveto
          hintmask 01110110
          199 -156 108 -188 -223 -138 -144 -272 vhcurveto
          -1128 vlineto
          endchar
        </CharString>
        <CharString name="grave">
          -503 -9 callgsubr
          103 336 vstem
          439 1257 -100 callsubr
          endchar
        </CharString>
        <CharString name="gravecomb">
          -1088 -9 callgsubr
          -801 336 vstem
          -465 1257 -100 callsubr
          endchar
        </CharString>
        <CharString name="greater">
          -26 232 854 hstem
          124 845 vstem
          124 1086 rmoveto
          -124 vlineto
          711 -302 -711 -304 rlineto
          -124 vlineto
          845 379 rlineto
          97 vlineto
          endchar
        </CharString>
        <CharString name="guillemotleft">
          -155 148 777 hstem
          123 710 vstem
          524 925 -64 callgsubr
          585 388 -64 callgsubr
          endchar
        </CharString>
        <CharString name="guillemotright">
          -159 162 783 hstem
          116 719 vstem
          516 541 rmoveto
          19 vlineto
          -294 385 rlineto
          -37 callgsubr
          319 783 rmoveto
          -37 callgsubr
          294 379 rlineto
          19 vlineto
          endchar
        </CharString>
        <CharString name="guilsinglleft">
          -479 168 777 hstem
          108 401 vstem
          509 945 -64 callgsubr
          endchar
        </CharString>
        <CharString name="guilsinglright">
          -479 162 783 hstem
          98 400 vstem
          204 945 rmoveto
          -37 callgsubr
          294 379 rlineto
          19 vlineto
          endchar
        </CharString>
        <CharString name="h">
          37 11 callgsubr
          hstem
          156 120 577 -84 callgsubr
          628 29 callsubr
          -154 -123 -80 -121 -75 hvcurveto
          635 -120 -1536 120 744 vlineto
          -82 callsubr
        </CharString>
        <CharString name="hyphen">
          -502 -29 callsubr
        </CharString>
        <CharString name="i">
          -628 21 -21 1316 21 callsubr
          149 165 -143 -7 callgsubr
          hintmask 11100000
          231 0 callgsubr
          52 31 35 44 45 -31 36 -52 hvcurveto
          hintmask 11010000
          59 -1476 rmoveto
          1082 -119 -1082 vlineto
          endchar
        </CharString>
        <CharString name="iacute">
          -41 callgsubr
          353 1522 -89 callgsubr
          -210 -1522 rmoveto
          -43 callsubr
        </CharString>
        <CharString name="icircumflex">
          -41 callgsubr
          509 1255 -101 callsubr
          -221 -1245 rmoveto
          -43 callsubr
        </CharString>
        <CharString name="idieresis">
          -632 21 -21 1303 14 callgsubr
          -68 165 71 120 81 165 vstem
          14 1463 -103 callgsubr
          -163 -1463 rmoveto
          -43 callsubr
        </CharString>
        <CharString name="igrave">
          -41 callgsubr
          303 1243 -100 callsubr
          94 -1243 rmoveto
          -43 callsubr
        </CharString>
        <CharString name="j">
          -620 -437 104 1649 21 callsubr
          145 165 -144 19 callsubr
          hintmask 11100000
          227 0 callgsubr
          51 32 35 44 45 -32 36 -51 hvcurveto
          hintmask 11010000
          59 -394 rmoveto
          -120 -1211 hlineto
          -136 -64 -68 -115 -30 -36 7 7 -24 vhcurveto
          -1 -99 rlineto
          -12 31 41 -7 34 hhcurveto
          184 100 109 199 hvcurveto
          endchar
        </CharString>
        <CharString name="k">
          -84 -25 callsubr
          157 -44 callsubr
          851 hmoveto
          144 hlineto
          -499 626 459 456 rlineto
          -151 hlineto
          -415 -406 -113 -122 rlineto
          982 -119 -1536 119 413 vlineto
          137 132 rlineto
          endchar
        </CharString>
        <CharString name="k.alt">
          -82 21 -21 528 102 hstem
          159 -84 callgsubr
          854 hmoveto
          145 hlineto
          -482 589 437 493 rlineto
          -145 hlineto
          -403 -452 rlineto
          -127 906 -120 -1536 120 528 139 hlineto
          endchar
        </CharString>
        <CharString name="k.alt2">
          -106 21 -21 517 102 hstem
          159 -84 callgsubr
          791 hmoveto
          150 hlineto
          -541 574 507 508 rlineto
          -157 hlineto
          -460 -463 rlineto
          -11 941 -120 -1560 120 517 18 hlineto
          endchar
        </CharString>
        <CharString name="l">
          -628 -25 callsubr
          171 -44 callsubr
          290 hmoveto
          21 callgsubr
          -119 -1536 vlineto
          endchar
        </CharString>
        <CharString name="less">
          -41 230 853 hstem
          77 828 vstem
          905 1083 rmoveto
          -828 -378 rlineto
          -96 vlineto
          828 -379 rlineto
          126 vlineto
          -696 300 696 302 rlineto
          endchar
        </CharString>
        <CharString name="logicalnot">
          30 670 106 hstem
          817 -84 callgsubr
          125 776 rmoveto
          -106 692 -284 120 390 vlineto
          endchar
        </CharString>
        <CharString name="longs">
          -623 21 -21 1455 102 hstem
          167 -84 callgsubr
          167 hmoveto
          120 1217 hlineto
          150 75 88 131 46 28 -5 -8 31 vhcurveto
          15 96 rlineto
          13 -44 -46 6 -45 hhcurveto
          -193 -118 -40 callsubr
          endchar
        </CharString>
        <CharString name="longst">
          127 -20 105 -64 -21 984 98 373 102 -84 -20 hstemhm
          243 119 410 121 hintmask 10101110
          1131 -36 callsubr
          -1 113 vlineto
          hintmask 01110110
          48 -99 -131 36 -109 hhcurveto
          -193 -117 -40 callsubr
          -135 -180 -98 180 -984 119 1217 vlineto
          150 76 88 130 66 93 -19 -24 45 vhcurveto
          -330 32 callgsubr
          hintmask 10101110
          -11 callgsubr
        </CharString>
        <CharString name="m">
          728 11 callgsubr
          hstem
          150 120 578 120 581 -44 callsubr
          1314 29 callsubr
          -173 -128 -88 -122 -69 hvcurveto
          148 -48 -118 62 -158 hhcurveto
          -160 -119 -78 -118 -72 hvcurveto
          -3 176 rlineto
          -116 20 callgsubr
          744 hlineto
          130 39 95 125 181 hhcurveto
          156 107 -68 -215 hvcurveto
          -716 120 716 vlineto
          12 127 103 154 202 2 rrcurveto
          156 1 108 -65 -229 vvcurveto
          -706 119 705 vlineto
          281 -129 116 -225 vhcurveto
          endchar
        </CharString>
        <CharString name="macron">
          -213 1344 97 hstem
          137 620 vstem
          757 1344 rmoveto
          97 -620 -97 vlineto
          endchar
        </CharString>
        <CharString name="minus">
          81 37 callgsubr
          166 835 vstem
          1001 38 callgsubr
          -835 -102 vlineto
          endchar
        </CharString>
        <CharString name="multiply">
          -16 100 875 hstem
          94 873 vstem
          967 180 rmoveto
          -358 365 343 349 -79 81 -343 -350 -343 350 -79 -81 343 -349 -357 -365 79 -80 357 364 358 -364 rlineto
          endchar
        </CharString>
        <CharString name="n">
          38 11 callgsubr
          hstem
          156 120 577 -84 callgsubr
          628 29 callsubr
          -155 -123 -81 -122 -75 hvcurveto
          -4 183 rlineto
          -115 20 callgsubr
          744 hlineto
          -82 callsubr
        </CharString>
        <CharString name="nine">
          48 -11 104 384 103 793 103 hstem
          102 118 665 -84 callgsubr
          541 6 callsubr
          -276 -163 -231 -280 -250 145 -238 272 154 132 80 118 80 hvcurveto
          -333 -8 -139 -249 -410 hhcurveto
          -25 hlineto
          -1 -104 rlineto
          26 hlineto
          526 151 358 432 hvcurveto
          116 vlineto
          340 -151 241 -313 vhcurveto
          -7 -896 rmoveto
          -204 -110 191 199 215 122 188 202 200 141 -160 -306 hvcurveto
          -71 vlineto
          -130 -45 -124 -126 -182 hhcurveto
          endchar
        </CharString>
        <CharString name="nine.frac">
          656 -47 callgsubr
          1464 -96 callsubr
        </CharString>
        <CharString name="nine.smcp">
          -63 -10 102 287 100 599 103 hstem
          85 123 572 -84 callgsubr
          489 1181 rmoveto
          -249 -155 -186 -224 -208 137 -184 245 140 110 62 86 63 hvcurveto
          -257 -9 -137 -178 -339 hhcurveto
          -23 hlineto
          -1 -102 rlineto
          24 hlineto
          445 160 268 361 hvcurveto
          95 vlineto
          281 -139 186 -272 vhcurveto
          -4 -702 rmoveto
          -180 -97 142 152 161 107 144 176 171 118 -118 -230 hvcurveto
          -59 vlineto
          -97 -37 -103 -95 -155 hhcurveto
          endchar
        </CharString>
        <CharString name="nine.sup">
          -8 -47 callgsubr
          800 -96 callsubr
        </CharString>
        <CharString name="nine.tnum">
          93 endchar
        </CharString>
        <CharString name="ntilde">
          38 11 callgsubr
          179 -26 callgsubr
          156 120 -32 -25 callgsubr
          -64 19 callsubr
          hintmask 11110101
          444 1391 rmoveto
          -78 callsubr
          hintmask 11101010
          -70 callgsubr
          -94 callgsubr
          hintmask 11110101
          -93 callgsubr
          hintmask 11101001
          184 -289 rmoveto
          -155 -123 -81 -122 -75 hvcurveto
          -4 183 rlineto
          -115 20 callgsubr
          744 hlineto
          -82 callsubr
        </CharString>
        <CharString name="numbersign">
          103 21 -21 410 94 441 95 416 -20 hstem
          85 1116 vstem
          1201 945 rmoveto
          95 -229 vlineto
          79 416 rlineto
          -100 hlineto
          -79 -416 rlineto
          -313 hlineto
          78 416 rlineto
          -100 hlineto
          -78 -416 rlineto
          -298 -95 280 hlineto
          -83 -441 rlineto
          -273 -94 255 9 callgsubr
          313 9 callgsubr
          273 94 -255 hlineto
          83 441 rlineto
          -183 -441 rmoveto
          -313 hlineto
          83 441 rlineto
          313 hlineto
          endchar
        </CharString>
        <CharString name="o">
          -63 callsubr
          91 557 -106 callgsubr
        </CharString>
        <CharString name="o.ss06">
          67 -8 callgsubr
          90 120 735 -84 callgsubr
          90 557 rmoveto
          -32 vlineto
          -316 202 -230 287 286 200 230 316 vhcurveto
          32 vlineto
          315 -200 230 -288 -285 -202 -230 -315 7 callsubr
          -32 rmoveto
          32 vlineto
          233 139 210 228 228 140 -210 -233 vhcurveto
          -32 vlineto
          -238 -140 -206 -226 -230 -139 206 238 vhcurveto
          endchar
        </CharString>
        <CharString name="oacute">
          -63 callsubr
          693 1534 -89 callgsubr
          -747 -977 -106 callgsubr
        </CharString>
        <CharString name="ocircumflex">
          -63 callsubr
          849 1267 -101 callsubr
          -758 -700 -106 callgsubr
        </CharString>
        <CharString name="odieresis">
          60 -45 callgsubr
          213 14 callgsubr
          91 120 61 -73 callsubr
          63 -84 callgsubr
          354 1475 -103 callgsubr
          -700 -918 -106 callgsubr
        </CharString>
        <CharString name="oe">
          804 -20 101 457 102 360 102 hstem
          95 119 718 127 645 -84 callgsubr
          1824 538 rmoveto
          102 vlineto
          279 -159 183 -269 vhcurveto
          -169 1 -152 -105 -78 -168 rrcurveto
          166 -76 -150 106 -199 hhcurveto
          -291 -186 -230 -315 hvcurveto
          -32 vlineto
          -316 186 -229 293 197 149 104 165 76 vhcurveto
          -165 78 153 -104 185 hhcurveto
          183 119 60 78 74 hvcurveto
          -51 83 rlineto
          -72 -70 -99 -48 -156 hhcurveto
          -214 -139 36 callsubr
          28 vlineto
          -127 -13 rmoveto
          -238 -124 -206 -234 -236 -124 206 238 vhcurveto
          32 vlineto
          233 124 -16 callgsubr
          236 124 -210 -233 vhcurveto
          464 443 rmoveto
          197 111 -149 -182 hvcurveto
          -29 -640 vlineto
          205 25 129 155 178 hhcurveto
          endchar
        </CharString>
        <CharString name="ograve">
          -63 callsubr
          643 1255 -100 callsubr
          -443 -698 -106 callgsubr
        </CharString>
        <CharString name="one">
          48 21 -21 1462 -20 hstem
          574 -84 callgsubr
          694 hmoveto
          1462 -20 vlineto
          -495 -185 rlineto
          -112 vlineto
          395 147 rlineto
          -1312 vlineto
          endchar
        </CharString>
        <CharString name="one.smcp">
          -63 21 -21 1168 -20 hstem
          513 -84 callgsubr
          633 hmoveto
          1168 -19 vlineto
          -454 -152 rlineto
          -107 vlineto
          353 111 rlineto
          -1020 vlineto
          endchar
        </CharString>
        <CharString name="one.sup">
          -25 callsubr
          359 105 vstem
          464 hmoveto
          -56 callsubr
        </CharString>
        <CharString name="one.tnum">
          -107 endchar
        </CharString>
        <CharString name="ordfeminine">
          -181 691 96 271 83 239 96 hstemhm
          158 108 -102 108 354 109 hintmask 11110100
          761 705 rmoveto
          -18 58 -8 58 65 vvcurveto
          314 vlineto
          183 -110 93 -161 29 callgsubr
          -181 -119 -98 -135 hvcurveto
          108 -6 rlineto
          96 74 47 118 108 54 -66 -113 vhcurveto
          -60 -139 vlineto
          hintmask 11110100
          -215 -114 -86 -146 -131 88 -87 161 102 76 51 57 44 hvcurveto
          4 -33 7 -32 9 -29 rrcurveto
          -222 82 rmoveto
          -113 -48 50 76 92 76 53 146 hvcurveto
          138 -167 hlineto
          -53 -36 -85 -51 -78 hhcurveto
          endchar
        </CharString>
        <CharString name="ordmasculine">
          -165 690 96 594 96 hstem
          135 109 430 108 vstem
          135 1132 rmoveto
          -99 vlineto
          -200 125 -143 200 200 122 143 200 vhcurveto
          99 vlineto
          201 -122 143 -202 -198 -125 -143 -201 vhcurveto
          109 -99 rmoveto
          99 vlineto
          138 70 110 144 146 70 -110 -138 vhcurveto
          -99 vlineto
          -138 -70 -109 -144 -149 -67 109 138 vhcurveto
          endchar
        </CharString>
        <CharString name="oslash">
          53 -45 callgsubr
          hstem
          89 120 726 -84 callgsubr
          857 1010 rmoveto
          100 204 rlineto
          -93 hlineto
          -78 -160 rlineto
          31 -63 -72 17 -80 hhcurveto
          -291 -191 -230 -315 hvcurveto
          -32 vlineto
          -202 78 -167 133 -93 vhcurveto
          -99 -203 rlineto
          93 hlineto
          79 161 rlineto
          -27 59 67 -14 74 hhcurveto
          292 190 229 316 hvcurveto
          32 vlineto
          195 -73 162 -125 96 vhcurveto
          -648 -485 rmoveto
          32 vlineto
          233 128 -16 callgsubr
          64 56 -15 -28 47 vhcurveto
          -388 -794 rlineto
          -93 82 -48 134 146 vvcurveto
          726 hmoveto
          -238 -129 -205 -233 -58 -51 12 22 -45 vhcurveto
          387 790 rlineto
          84 -83 45 -129 -137 vvcurveto
          endchar
        </CharString>
        <CharString name="otilde">
          60 -45 callgsubr
          179 -26 callgsubr
          91 120 29 -25 callgsubr
          24 19 callsubr
          hintmask 11101011
          913 1494 rmoveto
          -94 callgsubr
          hintmask 11111101
          -93 callgsubr
          -78 callsubr
          hintmask 11101011
          -70 callgsubr
          hintmask 11101001
          -822 -937 -106 callgsubr
        </CharString>
        <CharString name="p">
          47 -20 102 916 104 hstem
          155 120 632 -84 callgsubr
          612 29 callsubr
          -154 -112 -64 -109 -73 hvcurveto
          -6 153 rlineto
          -112 -1498 120 553 hlineto
          -98 73 113 -59 153 hhcurveto
          262 151 227 -18 callgsubr
          -151 13 callgsubr
          295 12 callsubr
          -102 -196 -218 -161 -98 80 108 -16 callsubr
          102 10 callsubr
        </CharString>
        <CharString name="p.ss06">
          54 -21 102 917 104 hstem
          155 120 652 -84 callgsubr
          612 29 callsubr
          -156 -113 -66 -111 -73 hvcurveto
          -14 157 rlineto
          -101 -1498 120 552 hlineto
          -97 73 113 -60 153 hhcurveto
          262 171 228 -18 callgsubr
          -171 13 callgsubr
          315 12 callsubr
          -122 -197 -218 -161 -98 80 109 -16 callsubr
          122 -191 -256 hvcurveto
          endchar
        </CharString>
        <CharString name="paragraph">
          -114 -77 callgsubr
          681 -24 callgsubr
          681 hmoveto
          121 -72 callgsubr
          -227 hlineto
          -318 -174 -200 -268 -270 174 -198 318 hvcurveto
          106 hlineto
          endchar
        </CharString>
        <CharString name="parenleft">
          -434 -470 2103 hstem
          141 -84 callgsubr
          141 589 rmoveto
          -15 vlineto
          -534 245 -387 207 -123 vhcurveto
          29 77 rlineto
          -178 129 -183 367 469 vvcurveto
          20 vlineto
          468 183 367 178 124 vhcurveto
          -29 82 rlineto
          -207 -124 -245 -400 -520 vvcurveto
          endchar
        </CharString>
        <CharString name="parenright">
          -420 -470 2103 hstem
          394 -84 callgsubr
          514 574 rmoveto
          15 vlineto
          520 -245 400 -207 124 vhcurveto
          -29 -77 rlineto
          171 -124 190 -372 -468 vvcurveto
          -20 vlineto
          -469 -183 -371 -178 -125 vhcurveto
          29 -77 rlineto
          207 123 245 387 534 vvcurveto
          endchar
        </CharString>
        <CharString name="percent">
          426 -21 87 504 87 143 87 503 87 hstem
          110 96 377 97 162 97 376 97 vstem
          110 1176 rmoveto
          -77 vlineto
          -163 3 callgsubr
          163 vhcurveto
          77 vlineto
          165 -111 136 -174 -174 -111 -136 -165 vhcurveto
          96 -77 rmoveto
          77 vlineto
          109 63 105 126 127 61 -105 -109 vhcurveto
          -77 vlineto
          -108 -60 -104 -126 -130 -61 105 107 vhcurveto
          229 -978 -13 callgsubr
          482 188 rmoveto
          -78 vlineto
          -164 3 callgsubr
          164 vhcurveto
          78 vlineto
          164 -110 136 -175 -174 -111 -136 -164 vhcurveto
          97 -78 rmoveto
          78 vlineto
          114 63 99 125 127 61 -99 -114 vhcurveto
          -78 vlineto
          -109 -60 -104 -126 -130 -60 105 108 vhcurveto
          endchar
        </CharString>
        <CharString name="period">
          -599 -9 165 hstem
          146 170 vstem
          230 156 rmoveto
          -87 callgsubr
          endchar
        </CharString>
        <CharString name="periodcentered">
          -584 636 165 hstem
          163 171 vstem
          248 801 rmoveto
          -53 -32 -37 -47 -46 32 -35 53 53 33 35 46 47 -33 37 -53 hvcurveto
          endchar
        </CharString>
        <CharString name="plus">
          68 628 113 hstem
          510 -84 callgsubr
          1074 741 rmoveto
          -444 465 -120 -465 -434 -113 434 -482 120 482 444 hlineto
          endchar
        </CharString>
        <CharString name="plusminus">
          -2 0 102 626 101 hstem
          499 111 vstem
          610 829 rmoveto
          438 -111 -438 -414 -101 414 -439 111 439 391 101 vlineto
          -872 -829 rmoveto
          835 102 -835 hlineto
          endchar
        </CharString>
        <CharString name="q">
          55 -45 callgsubr
          hstem
          -9 callsubr
          -44 callsubr
          867 1082 rmoveto
          -5 -146 rlineto
          104 -73 -110 62 -151 hhcurveto
          -264 -155 -47 callsubr
          155 -227 262 150 111 58 -3 callgsubr
          -1000 30 callsubr
          -102 196 252 hvcurveto
          21 vlineto
          252 102 197 -1 callsubr
          -108 34 callsubr
        </CharString>
        <CharString name="q.ss06">
          62 -8 callgsubr
          35 callgsubr
          -44 callsubr
          882 1082 rmoveto
          -11 -150 rlineto
          107 -73 -111 63 -152 hhcurveto
          -264 -175 28 callgsubr
          175 -222 262 150 111 59 -3 callgsubr
          -1001 30 callsubr
          -122 191 253 hvcurveto
          21 vlineto
          255 122 199 -1 callsubr
          -109 34 callsubr
        </CharString>
        <CharString name="question">
          -158 -9 160 1219 106 hstemhm
          360 165 -149 120 228 120 hintmask 11011000
          376 405 rmoveto
          120 hlineto
          107 27 96 85 73 vhcurveto
          139 127 97 117 178 vvcurveto
          221 -133 152 -239 -213 -172 -132 -228 -3 7 callsubr
          hlineto
          159 2 112 95 154 hhcurveto
          166 86 -109 -159 -160 -76 -69 -107 -106 hvcurveto
          -122 -118 -41 -74 -2 -170 rrcurveto
          hintmask 11101000
          66 -254 -29 callgsubr
        </CharString>
        <CharString name="questiondown">
          -147 -383 106 1218 21 callsubr
          88 120 194 165 -135 -7 callgsubr
          hintmask 11110000
          485 941 rmoveto
          52 30 36 45 45 -30 34 -52 -51 -32 -34 -45 -45 32 -36 51 hvcurveto
          hintmask 10101000
          66 -253 rmoveto
          -119 hlineto
          -107 -9 -70 -86 -73 vhcurveto
          -135 -126 -114 -130 -193 vvcurveto
          -228 140 -144 242 213 166 128 234 3 vhcurveto
          -119 hlineto
          -159 -2 -107 -97 -154 hhcurveto
          -169 -93 98 170 175 93 81 103 105 hvcurveto
          121 120 24 46 2 170 rrcurveto
          endchar
        </CharString>
        <CharString name="quotedbl">
          -499 1083 453 hstem
          146 98 138 97 vstem
          244 1397 rmoveto
          139 -98 -146 vlineto
          -3 -307 rlineto
          81 hlineto
          255 314 rmoveto
          139 -97 -142 vlineto
          -3 -311 rlineto
          81 hlineto
          endchar
        </CharString>
        <CharString name="quotedblbase">
          -494 -241 478 hstem
          133 120 114 -84 callgsubr
          253 90 rmoveto
          8 callgsubr
          -61 -86 vhcurveto
          71 -52 rlineto
          87 81 53 124 126 vvcurveto
          234 hmoveto
          8 callgsubr
          -62 -86 vhcurveto
          71 -52 rlineto
          87 81 54 124 126 vvcurveto
          endchar
        </CharString>
        <CharString name="quotedblleft">
          -476 1122 433 hstem
          100 119 132 -44 callsubr
          100 1234 rmoveto
          -68 callsubr
          251 hmoveto
          -68 callsubr
          endchar
        </CharString>
        <CharString name="quotedblright">
          -471 1100 436 hstem
          161 119 125 -44 callsubr
          280 1421 rmoveto
          -67 callgsubr
          244 hmoveto
          -67 callgsubr
          endchar
        </CharString>
        <CharString name="quoteleft">
          -723 1122 433 hstem
          99 -44 callsubr
          99 1234 rmoveto
          -68 callsubr
          endchar
        </CharString>
        <CharString name="quoteright">
          -723 1100 436 hstem
          155 -44 callsubr
          274 1421 rmoveto
          -67 callgsubr
          endchar
        </CharString>
        <CharString name="quotesinglbase">
          -734 -232 438 hstem
          133 -84 callgsubr
          253 90 rmoveto
          116 -120 -119 vlineto
          -105 -30 -79 -61 -83 vhcurveto
          71 -52 rlineto
          87 79 18 callsubr
          endchar
        </CharString>
        <CharString name="quotesingle">
          -739 1091 445 hstem
          125 102 vstem
          227 1396 rmoveto
          140 -102 -149 vlineto
          -5 -296 rlineto
          89 hlineto
          endchar
        </CharString>
        <CharString name="r">
          -398 21 -21 988 114 hstem
          156 -84 callgsubr
          580 29 callsubr
          -145 -100 -73 -116 -59 hvcurveto
          -3 169 rlineto
          -117 20 callgsubr
          746 hlineto
          142 40 98 100 162 hhcurveto
          30 24 -3 -4 26 hvcurveto
          4 109 rlineto
          6 -16 -34 6 -30 hhcurveto
          endchar
        </CharString>
        <CharString name="registered">
          554 -21 87 601 91 312 91 229 86 hstemhm
          103 85 365 98 353 99 -85 98 321 85 hintmask 1111111010000000
          813 6 callsubr
          -392 -318 -324 -423 -423 318 -327 392 391 0 callsubr
          -391 hvcurveto
          -1410 vmoveto
          -344 2 callsubr
          344 -19 callsubr
          290 444 rmoveto
          93 -32 79 -97 34 vhcurveto
          hintmask 1111110110000000
          91 41 51 65 91 vvcurveto
          165 -111 83 -195 vhcurveto
          -257 -839 98 345 187 hlineto
          hintmask 1111111010000000
          121 45 -47 -111 hvcurveto
          -43 vlineto
          -29 0 -81 14 -34 vhcurveto
          102 16 hlineto
          -12 30 -5 47 50 vvcurveto
          hintmask 1111110110000000
          -272 293 rmoveto
          -180 312 159 hlineto
          156 52 -47 -112 -100 -86 -52 -101 -1 hvcurveto
          endchar
        </CharString>
        <CharString name="ring">
          -452 1208 38 callsubr
          hstem
          118 37 callsubr
          vstem
          311 1586 rmoveto
          -109 -84 -84 -107 -107 84 -80 109 108 85 80 107 107 -85 84 -108 hvcurveto
          -306 vmoveto
          -68 -49 51 64 67 49 52 68 68 48 -52 -67 -65 -48 -50 -68 hvcurveto
          endchar
        </CharString>
        <CharString name="s">
          -50 -45 callgsubr
          hstemhm
          138 119 541 121 -114 120 hintmask 11101000
          515 504 rmoveto
          -79 callgsubr
          hintmask 11110000
          9 callsubr
          185 -149 138 -251 32 callsubr
          vhcurveto
          hintmask 11101000
          31 callgsubr
          vhcurveto
          endchar
        </CharString>
        <CharString name="section">
          152 -495 102 1768 101 hstemhm
          103 120 -114 120 -75 120 681 120 -97 119 -97 120 hintmask 11001100
          887 159 rmoveto
          hintmask 11001001
          146 44 87 96 132 vvcurveto
          237 -176 82 -298 79 vhcurveto
          -300 85 -72 59 150 vvcurveto
          138 108 114 242 vhcurveto
          hintmask 11001010
          229 125 -148 -182 hvcurveto
          -1 callgsubr
          278 -178 153 -295 -286 -184 -141 -215 -143 63 -88 115 -63 vhcurveto
          hintmask 11010100
          -140 -45 -83 -97 -133 vvcurveto
          -237 184 -93 292 -74 vhcurveto
          292 -82 78 -68 -138 vvcurveto
          -145 -126 -107 -223 vhcurveto
          hintmask 11100100
          -179 -204 79 252 hvcurveto
          -120 -2 rlineto
          -324 255 -107 248 284 185 131 225 vhcurveto
          hintmask 11001100
          148 -66 87 -122 63 vhcurveto
          hintmask 11010001
          -658 394 rmoveto
          112 71 88 156 19 vhcurveto
          43 -15 47 -14 50 -13 rrcurveto
          309 -89 95 -68 -145 vvcurveto
          -109 -89 -87 -157 -18 vhcurveto
          -39 13 -41 12 -44 12 rrcurveto
          -323 91 -78 56 155 vvcurveto
          endchar
        </CharString>
        <CharString name="semicolon">
          -689 914 165 hstemhm
          118 170 -134 118 hintmask 00000000
          hintmask 11000000
          202 1079 rmoveto
          -87 callgsubr
          hintmask 10100000
          70 -1030 -43 callgsubr
        </CharString>
        <CharString name="seven">
          48 21 -21 1354 102 hstem
          77 957 vstem
          1034 1388 rmoveto
          68 -957 -102 828 vlineto
          -617 -1354 rlineto
          14 callsubr
          endchar
        </CharString>
        <CharString name="seven.frac">
          1364 -28 callsubr
          1393 -69 callsubr
        </CharString>
        <CharString name="seven.smcp">
          -63 21 -21 1062 103 hstem
          68 866 vstem
          934 1096 rmoveto
          69 -866 -103 738 vlineto
          -553 -1062 rlineto
          126 hlineto
          endchar
        </CharString>
        <CharString name="seven.sup">
          21 -21 700 -28 callsubr
          729 -69 callsubr
        </CharString>
        <CharString name="seven.tnum">
          -18 endchar
        </CharString>
        <CharString name="six">
          17 callgsubr
          130 120 664 -44 callsubr
          614 -90 callgsubr
        </CharString>
        <CharString name="six.frac">
          653 -66 callsubr
          1185 -103 callsubr
        </CharString>
        <CharString name="six.smcp">
          -64 -16 102 580 102 303 104 hstem
          123 120 573 118 vstem
          557 768 rmoveto
          -138 -111 -62 -81 -64 hvcurveto
          283 18 181 163 303 hhcurveto
          16 104 -18 hlineto
          -411 -210 -250 -402 hvcurveto
          -105 vlineto
          -247 161 -187 258 242 150 174 225 210 -126 175 -251 vhcurveto
          -16 -682 rmoveto
          -168 -130 123 209 hvcurveto
          71 vlineto
          102 39 121 75 131 hhcurveto
          189 93 -128 -158 -162 -105 -132 -170 hvcurveto
          endchar
        </CharString>
        <CharString name="six.sup">
          -11 -66 callsubr
          521 -103 callsubr
        </CharString>
        <CharString name="six.tnum">
          17 callgsubr
          123 120 664 -44 callsubr
          607 -90 callgsubr
        </CharString>
        <CharString name="slash">
          -274 -6 callgsubr
          30 717 vstem
          139 -125 rmoveto
          608 1581 rlineto
          -109 hlineto
          -608 -1581 rlineto
          endchar
        </CharString>
        <CharString name="space">
          -589 endchar
        </CharString>
        <CharString name="st">
          572 -21 106 -105 102 902 98 -82 102 313 103 hstemhm
          138 119 435 115 -9 121 -114 120 298 120 hintmask 0000000000000000
          hintmask 1010111001000000
          1581 95 rmoveto
          -4 -27 -34 -6 -36 hhcurveto
          -74 -67 45 158 hvcurveto
          696 224 98 -224 75 vlineto
          174 -68 187 -275 -176 -132 -109 -164 vhcurveto
          hintmask 0101111001000000
          -63 17 -60 25 -63 vhcurveto
          28 -59 -72 15 -84 hhcurveto
          32 callsubr
          31 callgsubr
          hvcurveto
          hintmask 0101110011000000
          -79 callgsubr
          hintmask 0101110101000000
          9 callsubr
          196 -112 75 183 vvcurveto
          hintmask 1010111001000000
          111 72 71 121 161 62 -105 -154 vhcurveto
          -74 -194 -98 194 -696 vlineto
          -223 98 -86 137 52 43 6 12 34 vhcurveto
          endchar
        </CharString>
        <CharString name="sterling">
          82 0 104 541 105 622 104 hstemhm
          269 123 -106.5 124 535.5 122 hintmask 00000000
          hintmask 11101100
          349 104 rmoveto
          45 61 22 93 -2 110 -9 277 rcurveline
          341 105 hlineto
          hintmask 11110100
          -345 hlineto
          -9 289 rlineto
          215 112 118 162 149 130 -82 -202 vhcurveto
          122 hlineto
          230 -142 158 -251 -239 -166 -161 -276 vhcurveto
          9 -289 rlineto
          -185 -105 hlineto
          hintmask 11101100
          188 hlineto
          9 -277 2 -105 -26 -139 -70 -20 rlinecurve
          -99 -104 997 104 hlineto
          endchar
        </CharString>
        <CharString name="sterling.smcp">
          -57 0 102 433 86 457 103 hstemhm
          227 119 -112 119 459 -7 callgsubr
          hintmask 11101100
          273 102 rmoveto
          66 88 20 137 -5 139 -2 69 rcurveline
          411 86 hlineto
          hintmask 11110100
          -415 hlineto
          -4 123 rlineto
          218 -7 85 116 157 hhcurveto
          142 91 -75 -209 hvcurveto
          -1 callgsubr
          231 -101 156 -251 -228 -136 -163 -274 10 vhcurveto
          4 -123 rlineto
          -187 -86 hlineto
          hintmask 11101100
          191 hlineto
          2 -69 5 -131 -30 -201 -103 -32 rlinecurve
          -10 -102 872 102 hlineto
          endchar
        </CharString>
        <CharString name="t">
          -429 -20 105 899 98 hstem
          222 -24 callgsubr
          581 -36 callsubr
          -121 -278 32 callgsubr
          -11 callgsubr
        </CharString>
        <CharString name="thorn">
          63 -20 102 916 104 hstem
          160 119 632 -84 callgsubr
          616 29 callsubr
          -152 -112 -63 -107 -73 hvcurveto
          604 -119 -1952 119 553 vlineto
          -98 73 113 -59 154 hhcurveto
          262 150 227 -18 callgsubr
          -150 215 -265 vhcurveto
          295 12 callsubr
          -102 -196 -218 -162 -97 80 109 -53 vhcurveto
          519 vlineto
          109 47 91 99 172 hhcurveto
          220 102 10 callsubr
        </CharString>
        <CharString name="three">
          48 -20 102 609 103 580 102 hstemhm
          99 120 -98 119 626 119 -92 119 hintmask 11110010
          736 746 rmoveto
          hintmask 11101100
          164 61 85 135 131 vvcurveto
          258 -169 145 -256 -252 -187 -166 -236 vhcurveto
          -1 callgsubr
          185 137 115 183 209 97 -122 -175 -156 -117 -127 -224 vhcurveto
          -121 -103 121 hlineto
          hintmask 11110010
          219 149 -89 -210 -200 -122 -110 -206 -204 -142 128 185 hvcurveto
          -120 hlineto
          -277 230 -138 236 257 190 151 265 162 -84 136 -192 52 vhcurveto
          endchar
        </CharString>
        <CharString name="three.smcp">
          -63 -16 101 458 101 435 102 hstemhm
          85 120 -100 120 547 120 -95 120 hintmask 11110010
          677 597 rmoveto
          hintmask 11101100
          141 49 74 105 106 vvcurveto
          207 -154 117 -234 -227 -172 -130 -191 7 callsubr
          hlineto
          135 120 84 159 184 84 -93 -128 -119 -101 -95 -197 vhcurveto
          -111 -101 111 hlineto
          hintmask 11110010
          193 130 -67 -160 -146 -107 -85 -181 -178 -126 96 137 hvcurveto
          -120 hlineto
          -226 211 -108 212 234 175 121 212 133 -75 105 -165 42 vhcurveto
          endchar
        </CharString>
        <CharString name="three.sup">
          -11 -61 callgsubr
          404 -97 callsubr
        </CharString>
        <CharString name="three.tnum">
          30 endchar
        </CharString>
        <CharString name="tilde">
          -196 1273 -26 callgsubr
          107 -25 callgsubr
          hintmask 10110000
          780 1486 rmoveto
          -94 callgsubr
          hintmask 11110000
          -93 callgsubr
          -78 callsubr
          hintmask 10110000
          -70 callgsubr
          endchar
        </CharString>
        <CharString name="tildecomb">
          -1088 1273 -26 callgsubr
          -854 -25 callgsubr
          hintmask 10110000
          -181 1486 rmoveto
          -94 callgsubr
          hintmask 11110000
          -93 callgsubr
          -78 callsubr
          hintmask 10110000
          -70 callgsubr
          endchar
        </CharString>
        <CharString name="two">
          48 0 102 1272 102 hstem
          105 120 632 -84 callgsubr
          1050 hmoveto
          102 -766 vlineto
          407 458 rlineto
          148 168 138 182 176 vvcurveto
          244 -162 146 -262 -280 -168 -199 -241 7 callsubr
          hlineto
          196 125 142 203 197 107 -123 -176 -121 -64 -118 -179 -203 vhcurveto
          -477 -540 rlineto
          -93 vlineto
          endchar
        </CharString>
        <CharString name="two.smcp">
          -63 0 102 977 102 hstem
          91 120 552 -24 callgsubr
          947 hmoveto
          102 -678 vlineto
          354 334 rlineto
          137 142 124 134 145 vvcurveto
          200 -150 124 -229 -261 -153 -162 -197 7 callsubr
          hlineto
          150 97 107 197 168 90 -91 -134 -91 -57 -94 -157 -152 vhcurveto
          -428 -427 rlineto
          -90 vlineto
          endchar
        </CharString>
        <CharString name="two.sup">
          0 -38 callsubr
          hmoveto
          -91 callsubr
        </CharString>
        <CharString name="two.tnum">
          66 endchar
        </CharString>
        <CharString name="u">
          -66 callgsubr
          850 1082 -96 callgsubr
          hintmask 01110000
          -54 callsubr
        </CharString>
        <CharString name="uacute">
          -66 callgsubr
          841 21 callgsubr
          -83 callgsubr
          240 -175 -96 callgsubr
          hintmask 01110000
          -54 callsubr
        </CharString>
        <CharString name="ucircumflex">
          -66 callgsubr
          573 1442 -95 callsubr
          444 -177 -96 callgsubr
          hintmask 01110000
          -54 callsubr
        </CharString>
        <CharString name="udieresis">
          37 6 callgsubr
          1317 21 callsubr
          152 120 3 -73 callsubr
          -27 19 callsubr
          hintmask 10101100
          357 1317 -98 callsubr
          hintmask 10110010
          56 -235 -96 callgsubr
          hintmask 01110010
          -54 callsubr
        </CharString>
        <CharString name="ugrave">
          -66 callgsubr
          646 1257 -100 callsubr
          313 -175 -96 callgsubr
          hintmask 01110000
          -54 callsubr
        </CharString>
        <CharString name="underscore">
          -203 -102 102 hstem
          2 881 vstem
          883 -102 rmoveto
          102 -881 -102 vlineto
          endchar
        </CharString>
        <CharString name="uni00AD">
          -488 -29 callsubr
        </CharString>
        <CharString name="uni00B2">
          665 -38 callsubr
          665 rmoveto
          -91 callsubr
        </CharString>
        <CharString name="uni00B3">
          654 -61 callgsubr
          1069 -97 callsubr
        </CharString>
        <CharString name="uni00B9">
          665 24 callsubr
          665 rmoveto
          -56 callsubr
        </CharString>
        <CharString name="uni05B0">
          27 callgsubr
          hstem
          513 133 vstem
          580 -303 rmoveto
          -50 callgsubr
          -210 vmoveto
          -50 callgsubr
          endchar
        </CharString>
        <CharString name="uni05B1">
          -10 callsubr
          -96 128 50 30 callgsubr
          309 134 -32 134 -32 133 72 133 hintmask 01110110
          376 -303 rmoveto
          37 30 -31 callsubr
          -30 -92 callgsubr
          -36 29 -27 38 hvcurveto
          204 hmoveto
          -50 callgsubr
          204 hmoveto
          -75 callsubr
          -37 -29 -28 -37 -36 29 -27 37 hvcurveto
          hintmask 01101010
          -306 -178 -76 callgsubr
          -32 callgsubr
          -36 29 -27 38 hvcurveto
          hintmask 10110110
          306 -32 -76 callgsubr
          -37 -29 -28 -37 -36 29 -27 37 hvcurveto
          endchar
        </CharString>
        <CharString name="uni05B2">
          2 callgsubr
          704 133 hintmask 00000000
          hintmask 01010000
          770 -303 -76 callgsubr
          -37 -29 -28 -37 -36 29 -27 37 hvcurveto
          hintmask 10110000
          -446 27 rmoveto
          316 75 -316 hlineto
          446 -312 -76 callgsubr
          -37 -29 -28 -37 -36 29 -27 37 hvcurveto
          endchar
        </CharString>
        <CharString name="uni05B3">
          2 callgsubr
          420 133 151 134 hintmask 00000000
          hintmask 01011000
          771 -303 -76 callgsubr
          -32 callgsubr
          -36 29 -27 38 hvcurveto
          -285 -187 rmoveto
          38 29 27 37 hvcurveto
          hintmask 00111000
          45 -34 2 -6 103 vhcurveto
          130 75 -320 -75 135 hlineto
          -5 -103 -33 -2 -45 vvcurveto
          hintmask 01011000
          -32 29 -32 37 vhcurveto
          hintmask 10111000
          285 -23 -76 callgsubr
          -32 callgsubr
          -36 29 -27 38 hvcurveto
          endchar
        </CharString>
        <CharString name="uni05B4">
          -1088 -303 128 hstem
          513 133 vstem
          580 -44 callgsubr
          -31 29 -32 38 hvcurveto
          endchar
        </CharString>
        <CharString name="uni05B5">
          -1088 -303 128 hstem
          411 134 70 133 vstem
          -65 callsubr
          endchar
        </CharString>
        <CharString name="uni05B6">
          -1088 -481 128 50 30 callgsubr
          411 134 -32 133 -31 133 hintmask 00000000
          hintmask 11101000
          -65 callsubr
          hintmask 11010000
          -101 -178 rmoveto
          -50 callgsubr
          endchar
        </CharString>
        <CharString name="uni05B7">
          -1088 -276 75 hstem
          396 367 vstem
          396 -276 -15 callsubr
        </CharString>
        <CharString name="uni05B8">
          -1088 -276 75 hstem
          516 133 vstem
          583 -492 rmoveto
          25 callsubr
          hvcurveto
          147 75 -354 -75 -4 callgsubr
          vhcurveto
          endchar
        </CharString>
        <CharString name="uni05B9">
          -27 callsubr
          173 134 vstem
          240 -61 callsubr
          endchar
        </CharString>
        <CharString name="uni05BA">
          -27 callsubr
          173 134 vstem
          240 -61 callsubr
          endchar
        </CharString>
        <CharString name="uni05BB">
          -1088 -628 128 34 128 35 30 callgsubr
          514 133 -15 133 -16 134 hintmask 11110100
          581 -44 callgsubr
          -31 29 -32 38 hvcurveto
          hintmask 11101000
          117 -163 rmoveto
          38 29 28 36 36 -29 28 -38 -38 -28 -28 -36 -31 28 -33 38 hvcurveto
          hintmask 11110100
          118 -162 -76 callgsubr
          -32 callgsubr
          -31 29 -32 38 hvcurveto
          endchar
        </CharString>
        <CharString name="uni05BC">
          -1088 532 129 hstem
          241 134 vstem
          308 532 -104 callgsubr
        </CharString>
        <CharString name="uni05BE">
          -609 39 callsubr
          60 359 vstem
          419 1066 rmoveto
          101 -359 -101 vlineto
          endchar
        </CharString>
        <CharString name="uni05BF">
          -1088 1352 81 hstem
          250 438 vstem
          250 -22 callsubr
          endchar
        </CharString>
        <CharString name="uni05C1">
          -27 callsubr
          1214 134 vstem
          1280 -88 callgsubr
          endchar
        </CharString>
        <CharString name="uni05C2">
          -27 callsubr
          148 134 vstem
          214 -88 callgsubr
          endchar
        </CharString>
        <CharString name="uni05D0">
          183 21 -21 callgsubr
          200 119 -99 callgsubr
          endchar
        </CharString>
        <CharString name="uni05D1">
          -36 13 callsubr
          hstem
          736 -65 callgsubr
          858 109 -83 callsubr
          endchar
        </CharString>
        <CharString name="uni05D2">
          -89 callsubr
        </CharString>
        <CharString name="uni05D2.001">
          -89 callsubr
        </CharString>
        <CharString name="uni05D3">
          -68 -81 callsubr
          646 -30 callsubr
          endchar
        </CharString>
        <CharString name="uni05D4">
          93 -81 callsubr
          163 119 611 -51 callgsubr
          -730 -722 -38 callgsubr
        </CharString>
        <CharString name="uni05D5">
          -528 21 -21 1066 101 hstem
          253 -68 callgsubr
          endchar
        </CharString>
        <CharString name="uni05D6">
          -400 -81 callsubr
          80 525 -39 callgsubr
          endchar
        </CharString>
        <CharString name="uni05D7">
          128 -81 callsubr
          186.5 121 620.5 -24 callgsubr
          186 hmoveto
          121 hlineto
          1 1066 rlineto
          285 hlineto
          237 98 -101 -244 hvcurveto
          -721 121 718 vlineto
          -17 callsubr
          -404 hlineto
          endchar
        </CharString>
        <CharString name="uni05D8">
          142 -21 102 991 34 callgsubr
          645 121 hintmask 11011000
          -80 callgsubr
          hintmask 10111000
          738 -121 -737 vlineto
          hintmask 11011000
          26 callsubr
          endchar
        </CharString>
        <CharString name="uni05D9">
          -508 39 callsubr
          287 -65 callgsubr
          287 523 -75 callgsubr
          endchar
        </CharString>
        <CharString name="uni05DA">
          -109 39 callsubr
          678 -24 callsubr
          endchar
        </CharString>
        <CharString name="uni05DB">
          -6 -15 102 979 101 hstem
          775 -65 callgsubr
          415 -15 -88 callsubr
          endchar
        </CharString>
        <CharString name="uni05DC">
          -56 -81 callsubr
          91 122 -49 callgsubr
          endchar
        </CharString>
        <CharString name="uni05DD">
          177 13 callsubr
          hstem
          180 122 656 -24 callgsubr
          180 hmoveto
          899 1167 -899 33 callgsubr
          656 -964 vlineto
          endchar
        </CharString>
        <CharString name="uni05DE">
          176 0 101 977 107 hstem
          981 -85 callgsubr
          endchar
        </CharString>
        <CharString name="uni05DF">
          -535 39 callsubr
          247 -24 callgsubr
          247 -416 rmoveto
          121 1583 -275 -101 154 hlineto
          endchar
        </CharString>
        <CharString name="uni05E0">
          -390 -20 105 -65 -21 1067 101 hstemhm
          391 122 hintmask 10110000
          -51 callsubr
          hintmask 01110000
          -7 -99 rlineto
          hintmask 10110000
          -12 51 57 -7 64 hhcurveto
          endchar
        </CharString>
        <CharString name="uni05E1">
          179 -21 107 992 107 hstem
          176 121 714 -93 callsubr
          endchar
        </CharString>
        <CharString name="uni05E2">
          48 -22 97 1092 -20 hstem
          829 -65 callgsubr
          829 -64 callsubr
          -718 vlineto
          -214 -121 -127 -184 -27 vhcurveto
          -31 54 -19 59 -20 92 4 callgsubr
          21 -93 29 -59 40 -59 rlinecurve
          -95 3 -109 25 -121 48 31 callsubr
          -24 115 hhcurveto
          290 204 166 308 hvcurveto
          715 vlineto
          endchar
        </CharString>
        <CharString name="uni05E3">
          71 430 108 528 101 hstem
          186 120 547 -80 callsubr
          endchar
        </CharString>
        <CharString name="uni05E4">
          -10 callgsubr
          478 101 35 callsubr
          617 -24 callgsubr
          548 -17 -98 callgsubr
          endchar
        </CharString>
        <CharString name="uni05E5">
          -37 1167 -20 hstem
          588 116 vstem
          631 550 rmoveto
          368 617 rlineto
          -138 hlineto
          -302 -512 -346 512 rlineto
          -139 hlineto
          484 -704 rlineto
          21 -31 9 -41 -59 vvcurveto
          -748 116 739 vlineto
          82 -14 59 -31 45 vhcurveto
          endchar
        </CharString>
        <CharString name="uni05E6">
          -12 0 102 1065 -20 hstem
          74 925 -60 callsubr
          endchar
        </CharString>
        <CharString name="uni05E7">
          131 0 101 965 101 hstem
          199 119 594 -79 callsubr
          endchar
        </CharString>
        <CharString name="uni05E8">
          -99 -81 callsubr
          701 -65 callgsubr
          701 -94 callsubr
          endchar
        </CharString>
        <CharString name="uni05E8.001">
          -100 -81 callsubr
          708 -65 callgsubr
          708 -94 callsubr
          endchar
        </CharString>
        <CharString name="uni05E8.002">
          -100 -81 callsubr
          708 -65 callgsubr
          708 -94 callsubr
          endchar
        </CharString>
        <CharString name="uni05E8.003">
          -100 -81 callsubr
          708 -65 callgsubr
          708 -94 callsubr
          endchar
        </CharString>
        <CharString name="uni05E8.004">
          -100 -81 callsubr
          708 -65 callgsubr
          708 -94 callsubr
          endchar
        </CharString>
        <CharString name="uni05E9">
          5 callgsubr
          1089 -20 hstem
          186 -33 callsubr
          411 -44 callsubr
          304 1167 -81 callgsubr
          -104 callsubr
          endchar
        </CharString>
        <CharString name="uni05EA">
          167 3 callsubr
          599 122 hintmask 10111000
          631 -64 callsubr
          -519 -90 callsubr
          174 -11 callsubr
          hintmask 01111000
          27 callsubr
          hintmask 10111000
          -17 callsubr
          endchar
        </CharString>
        <CharString name="uni05F0">
          32 16 callsubr
          438 -68 callgsubr
          560 -1066 -12 callgsubr
        </CharString>
        <CharString name="uni05F1">
          52 16 callsubr
          472 -68 callgsubr
          594 -543 -75 callgsubr
          endchar
        </CharString>
        <CharString name="uni05F2">
          72 39 callsubr
          287 122 458 -65 callgsubr
          287 523 -75 callgsubr
          580 -543 -75 callgsubr
          endchar
        </CharString>
        <CharString name="uni05F3">
          -806 918 494 hstem
          101 113 vstem
          87 918 rmoveto
          75 74 52 110 129 vvcurveto
          1 181 rlineto
          -114 -189 hlineto
          -103 -28 -80 -61 -80 vhcurveto
          endchar
        </CharString>
        <CharString name="uni05F4">
          -547 918 494 hstem
          108 113 127 113 vstem
          93 918 -19 callgsubr
          -29 -80 -60 -80 vhcurveto
          314 -42 -19 callgsubr
          -28 -80 -61 -80 vhcurveto
          endchar
        </CharString>
        <CharString name="uni1E9E">
          236 -20 101 -60 -21 739 99 536 102 hstemhm
          172 118 809 120 hintmask 10111100
          725 838 rmoveto
          -11 hlineto
          365 405 rlineto
          135 -121 -147 98 -208 hhcurveto
          -315 -116 -183 -313 hvcurveto
          hintmask 01111100
          -980 118 978 vlineto
          252 77 144 236 144 107 -61 -83 74 vhcurveto
          -354 -388 rlineto
          -103 149 vlineto
          263 113 -123 -210 hvcurveto
          hintmask 10111100
          -209 -137 -116 -217 -96 -81 26 26 -55 vhcurveto
          -43 -104 rlineto
          -35 94 88 -14 93 hhcurveto
          288 186 155 273 265 -168 165 -326 hvcurveto
          endchar
        </CharString>
        <CharString name="uni1E9E.smcp">
          -4 -20 101 -60 -21 571 93 418 99 hstemhm
          154 119 611 119 hintmask 10111100
          617 664 rmoveto
          297 330 rlineto
          113 -100 -115 74 -165 hhcurveto
          -272 -107 -158 -270 -1 hvcurveto
          hintmask 01111100
          -753 119 751 vlineto
          211 72 120 189 104 79 -47 -57 50 vhcurveto
          -279 -313 rlineto
          -94 74 vlineto
          226 96 -83 -143 hvcurveto
          hintmask 10111100
          -170 -108 -94 -169 -78 -66 26 26 -45 vhcurveto
          -40 -99 rlineto
          -37 71 79 -17 79 hhcurveto
          241 155 133 234 189 -135 117 -251 11 hvcurveto
          endchar
        </CharString>
        <CharString name="uni200C">
          -1088 -200 1475 hstem
          -616 85 vstem
          -616 1275 rmoveto
          -1475 85 1475 vlineto
          endchar
        </CharString>
        <CharString name="uni200D">
          -1088 -200 1689 hstem
          -617 85 vstem
          -317 1427 rmoveto
          -61 62 -195 -196 -194 196 -62 -62 194 -197 -194 -196 62 -63 150 152 rlineto
          -1323 85 1326 vlineto
          153 -155 62 63 -194 196 rlineto
          endchar
        </CharString>
        <CharString name="uni200E">
          15 callgsubr
          -765 85 vstem
          -433 1464 rmoveto
          -120 hlineto
          192 -189 rlineto
          -404 -1475 85 1390 316 hlineto
          -194 -179 rlineto
          121 hlineto
          232 220 rlineto
          endchar
        </CharString>
        <CharString name="uni200F">
          15 callgsubr
          -424 85 vstem
          -339 1275 rmoveto
          -404 hlineto
          192 189 rlineto
          -120 hlineto
          -228 -233 232 -220 rlineto
          121 hlineto
          -194 179 rlineto
          316 -1390 85 hlineto
          endchar
        </CharString>
        <CharString name="uni2070">
          654 -55 callgsubr
          991 -101 callgsubr
        </CharString>
        <CharString name="uni2074">
          852 -27 callgsubr
          941 -92 callsubr
        </CharString>
        <CharString name="uni2075">
          654 -59 callsubr
          1063 -100 callgsubr
        </CharString>
        <CharString name="uni2076">
          654 -66 callsubr
          1186 -103 callsubr
        </CharString>
        <CharString name="uni2077">
          1365 -28 callsubr
          1394 -69 callsubr
        </CharString>
        <CharString name="uni2078">
          654 -77 callsubr
          1070 -105 callsubr
        </CharString>
        <CharString name="uni2079">
          657 -47 callgsubr
          1465 -96 callsubr
        </CharString>
        <CharString name="uni2080">
          -382 -55 callgsubr
          -45 -101 callgsubr
        </CharString>
        <CharString name="uni2081">
          -364 24 callsubr
          -364 rmoveto
          -56 callsubr
        </CharString>
        <CharString name="uni2082">
          -364 -38 callsubr
          -364 rmoveto
          -91 callsubr
        </CharString>
        <CharString name="uni2083">
          -375 -61 callgsubr
          40 -97 callsubr
        </CharString>
        <CharString name="uni2084">
          -177 -27 callgsubr
          -88 -92 callsubr
        </CharString>
        <CharString name="uni2085">
          -375 -59 callsubr
          34 -100 callgsubr
        </CharString>
        <CharString name="uni2086">
          -375 -66 callsubr
          157 -103 callsubr
        </CharString>
        <CharString name="uni2087">
          336 -28 callsubr
          365 -69 callsubr
        </CharString>
        <CharString name="uni2088">
          -375 -77 callsubr
          41 -105 callsubr
        </CharString>
        <CharString name="uni2089">
          -372 87 176 85 24 -21 368 89 hstemhm
          76 106 353 106 hintmask 10111100
          356 436 rmoveto
          -171 -109 -127 -153 hvcurveto
          hintmask 11011100
          -148 94 -117 165 85 71 36 52 43 vhcurveto
          -167 -9 -94 -97 -209 hhcurveto
          -16 -87 16 hlineto
          291 128 163 264 hvcurveto
          63 vlineto
          hintmask 10111100
          200 -104 118 -181 vhcurveto
          hintmask 11011100
          -1 -460 rmoveto
          -112 -61 84 97 100 66 90 109 107 71 -70 -142 hvcurveto
          -50 vlineto
          -55 -24 -61 -54 -95 hhcurveto
          endchar
        </CharString>
        <CharString name="uni20AA">
          529 0 104 961 103 hstem
          161 115 273 115 265 115 272 115 vstem
          161 hmoveto
          115 1065 653 -545 hlineto
          -110 -9 -74 -22 -73 vhcurveto
          6 -5 101 15 rlineto
          29 77 10 68 102 vvcurveto
          648 -883 vlineto
          388 -1168 rmoveto
          415 hlineto
          287 181 176 274 -1 hvcurveto
          718 -115 -720 vlineto
          -210 -141 -135 -204 1 vhcurveto
          -307 755 -115 hlineto
          endchar
        </CharString>
        <CharString name="uniFB1F">
          72 -276 75 1267 101 hstem
          287 122 458 -65 callgsubr
          287 523 -75 callgsubr
          580 -543 -75 callgsubr
          -695 -1342 -15 callsubr
        </CharString>
        <CharString name="uniFB20">
          82 -38 99 1106 -20 hstem
          66 918 vstem
          866 -64 callsubr
          -37 -732 -11 -206 -105 -126 -171 -33 rlinecurve
          -34 58 -21 61 -21 97 4 callgsubr
          24 -102 31 -61 45 -62 rlinecurve
          -3 hlineto
          -99 1 -116 24 -129 52 31 callsubr
          -27 115 hhcurveto
          290 185 169 308 16 hvcurveto
          36 728 rlineto
          endchar
        </CharString>
        <CharString name="uniFB21">
          675 21 -21 callgsubr
          225 -44 callsubr
          1658 -64 callsubr
          -138 hlineto
          -416 -699 -777 699 rlineto
          -166 hlineto
          221 -200 rlineto
          -101 -85 -56 -129 -169 vvcurveto
          -584 119 575 vlineto
          153 36 106 62 79 vhcurveto
          1010 -913 rlineto
          173 hlineto
          -431 387 rlineto
          endchar
        </CharString>
        <CharString name="uniFB22">
          212 -81 callsubr
          889 23 callsubr
          829 -1066 122 1055 vlineto
          228 19 rlineto
          93 vlineto
          endchar
        </CharString>
        <CharString name="uniFB23">
          540 -81 callsubr
          161 120 1059 -65 callgsubr
          1340 hmoveto
          122 824 hlineto
          216 -132 127 -222 vhcurveto
          -948 -101 953 hlineto
          138 89 -90 -140 hvcurveto
          -1179 -836 rmoveto
          120 386 hlineto
          113 11 79 20 65 vhcurveto
          -6 6 -109 -16 rlineto
          -20 -60 -16 -64 -115 vvcurveto
          endchar
        </CharString>
        <CharString name="uniFB24">
          480 -31 104 993 101 hstem
          1261 -65 callgsubr
          699 -31 rmoveto
          443 240 157 314 1 hvcurveto
          727 -1261 -101 1139 -626 vlineto
          -242 -187 -125 -379 -158 -199 22 44 -225 vhcurveto
          -20 -101 rlineto
          -46 228 208 -23 170 hhcurveto
          endchar
        </CharString>
        <CharString name="uniFB25">
          319 -81 callsubr
          91 -65 callgsubr
          -14 callgsubr
          -64 callsubr
          -1107 352 -122 -453 1075 hlineto
          -613 -1066 rlineto
          132 hlineto
          635 1092 rlineto
          endchar
        </CharString>
        <CharString name="uniFB26">
          699 13 callsubr
          hstem
          132 122 1251 -65 callgsubr
          132 hmoveto
          1495 1167 -1495 33 callgsubr
          1251 -964 vlineto
          endchar
        </CharString>
        <CharString name="uniFB27">
          362 -81 callsubr
          1162 -24 callgsubr
          1162 hmoveto
          121 824 hlineto
          216 -131 127 -222 vhcurveto
          -871 -101 875 hlineto
          139 89 -90 -140 hvcurveto
          endchar
        </CharString>
        <CharString name="uniFB28">
          634 3 callsubr
          1066 121 hintmask 10111000
          1098 -64 callsubr
          -986 -90 callsubr
          641 -11 callsubr
          hintmask 01111000
          -721 121 718 vlineto
          hintmask 10111000
          305 -147 144 -310 vhcurveto
          endchar
        </CharString>
        <CharString name="uniFB29">
          52 625 104 hstem
          504 111 vstem
          504 1206 rmoveto
          -477 -436 -104 998 104 -451 477 vlineto
          endchar
        </CharString>
        <CharString name="uniFB2A">
          5 callgsubr
          1089 -20 173 30 callgsubr
          186 -33 callsubr
          400 134 -123 -7 callgsubr
          hintmask 11111100
          1295 -88 callgsubr
          -991 -20 callsubr
          hintmask 11011010
          -104 callsubr
          endchar
        </CharString>
        <CharString name="uniFB2B">
          5 callgsubr
          1089 -22 callgsubr
          411 -7 callgsubr
          hintmask 11110110
          235 -88 callgsubr
          hintmask 11001110
          69 -20 callsubr
          -104 callsubr
          endchar
        </CharString>
        <CharString name="uniFB2C">
          10 callgsubr
          173 30 callgsubr
          186 -33 callsubr
          138 134 128 134 -123 119 hintmask 0000000000000000
          hintmask 1011110100000000
          1295 -88 callgsubr
          -991 -20 callsubr
          hintmask 1110111010000000
          -104 callsubr
          417 247 -104 callgsubr
        </CharString>
        <CharString name="uniFB2D">
          456 -24 102 461 129 499 -22 callgsubr
          138 134 139 119 hintmask 0000000000000000
          hintmask 1011101010000000
          235 -88 callgsubr
          hintmask 1110011110000000
          69 -20 callsubr
          -104 callsubr
          417 247 -104 callgsubr
        </CharString>
        <CharString name="uniFB2E">
          183 -276 75 222 -21 callgsubr
          200 119 -99 callgsubr
          -302 -796 -15 callsubr
        </CharString>
        <CharString name="uniFB2F">
          183 -276 75 222 -21 callgsubr
          200 119 276 133 -99 callgsubr
          -295 -796 rmoveto
          -4 callgsubr
          25 callsubr
          vhcurveto
          147 75 -354 hlineto
          endchar
        </CharString>
        <CharString name="uniFB30">
          183 21 -21 187 129 851 -20 hstem
          200 119 163 134 -99 callgsubr
          -228 -204 rmoveto
          -32 callgsubr
          -31 29 -33 38 39 callgsubr
          37 -30 28 -37 hvcurveto
          endchar
        </CharString>
        <CharString name="uniFB31">
          -36 0 102 437 19 callgsubr
          331 134 271 -65 callgsubr
          858 109 -83 callsubr
          -537 508 -57 callgsubr
        </CharString>
        <CharString name="uniFB32">
          -328 -6 115 -91 -21 24 -50 callsubr
          hstemhm
          144 134 -32 callsubr
          hintmask 10011010
          50 -6 rmoveto
          217 172 171 178 21 hvcurveto
          8 hlineto
          hintmask 00111010
          67 -343 rlineto
          -1 callgsubr
          -84 386 rlineto
          -11 52 -7 66 54 vvcurveto
          609 -389 -101 269 -604 vlineto
          hintmask 10011010
          -23 -187 -130 -157 -221 -9 rrcurveto
          -13 -13 0 3 -15 hvcurveto
          hintmask 01011010
          -115 vlineto
          hintmask 10011010
          -2 11 11 -1 11 hhcurveto
          hintmask 10011110
          161 545 -104 callgsubr
        </CharString>
        <CharString name="uniFB33">
          -68 -52 callsubr
          271 134 241 -30 callsubr
          -621 -628 -104 callgsubr
        </CharString>
        <CharString name="uniFB34">
          93 -52 callsubr
          163 119 239 134 238 -51 callgsubr
          -305 -183 rmoveto
          37 30 28 -28 callgsubr
          -33 38 hvcurveto
          -425 -539 -38 callgsubr
        </CharString>
        <CharString name="uniFB35">
          -528 -52 callsubr
          19 134 100 -68 callgsubr
          -167 -527 -104 callgsubr
        </CharString>
        <CharString name="uniFB36">
          -400 -52 callsubr
          458 134 -39 callgsubr
          354 -520 -104 callgsubr
        </CharString>
        <CharString name="uniFB38">
          142 -21 102 458 129 404 34 callgsubr
          262 134 249 121 hintmask 11101010
          -80 callgsubr
          hintmask 11011010
          738 -121 -737 vlineto
          hintmask 11101010
          26 callsubr
          hintmask 11101110
          6 560 -104 callgsubr
        </CharString>
        <CharString name="uniFB39">
          -508 758 129 179 101 hstem
          42 134 111 -65 callgsubr
          287 523 -75 callgsubr
          -178 -308 -104 callgsubr
        </CharString>
        <CharString name="uniFB3A">
          -109 -57 callsubr
          hstem
          272 134 272 -24 callsubr
          -339 -527 -104 callgsubr
        </CharString>
        <CharString name="uniFB3B">
          -6 -15 102 452 19 callgsubr
          357 134 284 -65 callgsubr
          415 -15 -88 callsubr
          9 554 -104 callgsubr
        </CharString>
        <CharString name="uniFB3C">
          -56 21 -21 635 129 302 101 hstem
          91 122 51 134 -49 callgsubr
          -546 -393 -57 callgsubr
        </CharString>
        <CharString name="uniFB3E">
          176 0 101 438 129 410 107 hstem
          602 134 245 -85 callgsubr
          398 -247 -104 callgsubr
        </CharString>
        <CharString name="uniFB40">
          -390 -20 105 -65 -21 540 -37 callsubr
          101 hstemhm
          113 134 144 122 hintmask 10010100
          -51 callsubr
          hintmask 01010100
          -7 -99 rlineto
          hintmask 10010100
          -12 51 57 -7 64 hhcurveto
          hintmask 10111100
          -52 559 -104 callgsubr
        </CharString>
        <CharString name="uniFB41">
          179 -21 107 453 129 410 107 hstem
          176 121 290 134 290 -93 callsubr
          453 vmoveto
          37 30 28 -28 callgsubr
          -33 38 hvcurveto
          endchar
        </CharString>
        <CharString name="uniFB43">
          71 430 108 175 129 224 101 hstem
          186 120 217 134 196 -80 callsubr
          -384 1129 -104 callgsubr
        </CharString>
        <CharString name="uniFB44">
          -10 callgsubr
          145 129 204 101 35 callsubr
          247 134 236 -24 callgsubr
          548 -17 -98 callgsubr
          66 750 -104 callgsubr
        </CharString>
        <CharString name="uniFB46">
          -12 0 102 164 129 772 -20 hstem
          275 134 -60 callsubr
          -223 -222 -57 callgsubr
        </CharString>
        <CharString name="uniFB47">
          131 0 101 438 19 callgsubr
          199 119 227 134 233 -79 callsubr
          413 86 -104 callgsubr
        </CharString>
        <CharString name="uniFB48">
          -99 -52 callsubr
          290 134 277 -65 callgsubr
          701 -94 callsubr
          -344 -297 -104 callgsubr
        </CharString>
        <CharString name="uniFB49">
          10 callgsubr
          hstem
          186 -33 callsubr
          138 134 139 -44 callsubr
          304 1167 -81 callgsubr
          -104 callsubr
          417 247 -104 callgsubr
        </CharString>
        <CharString name="uniFB4A">
          167 -6 104 -77 -50 callsubr
          hstemhm
          249 119 233 134 232 122 hintmask 10111010
          631 -64 callsubr
          -519 -90 callsubr
          174 -11 callsubr
          hintmask 01111010
          27 callsubr
          hintmask 10111010
          -17 callsubr
          hintmask 10111110
          37 -628 -104 callgsubr
        </CharString>
        <CharString name="uniFB4B">
          -528 21 -60 callgsubr
          153 30 callgsubr
          171 134 -52 122 hintmask 00000000
          hintmask 11110000
          238 -61 callsubr
          hintmask 11101000
          15 -1320 -12 callgsubr
        </CharString>
        <CharString name="uniFB4C">
          -36 13 callsubr
          185 81 hstem
          736 -65 callgsubr
          689 1433 rmoveto
          -438 -81 438 hlineto
          169 -1243 -83 callsubr
          endchar
        </CharString>
        <CharString name="uniFB4D">
          -6 -15 102 979 101 185 81 hstem
          775 -65 callgsubr
          255 -22 callsubr
          160 -1448 -88 callsubr
          endchar
        </CharString>
        <CharString name="uniFB4E">
          -10 callgsubr
          478 101 185 81 35 callsubr
          617 -24 callgsubr
          394 -22 callsubr
          154 -1450 -98 callgsubr
          endchar
        </CharString>
        <CharString name="uniFB4F">
          70 21 -21 callgsubr
          91 -65 callgsubr
          1052 -64 callsubr
          -138 hlineto
          -331 -554 -370 512 rlineto
          394 -122 -415 vlineto
          803 -1104 rlineto
          133 hlineto
          -368 509 rlineto
          endchar
        </CharString>
        <CharString name="v">
          -103 -25 callsubr
          38 908 vstem
          822 1082 rmoveto
          -328 -918 -332 918 rlineto
          -124 hlineto
          406 -1082 rlineto
          97 hlineto
          405 1082 rlineto
          endchar
        </CharString>
        <CharString name="w">
          457 -25 callsubr
          63 1411 vstem
          1350 1082 rmoveto
          -223 -830 -22 -104 -29 113 -256 821 rlineto
          -103 hlineto
          -260 -828 -23 -96 -18 91 -230 833 rlineto
          -123 hlineto
          314 -1082 rlineto
          102 hlineto
          273 858 14 60 12 -59 279 -859 rlineto
          102 hlineto
          315 1082 rlineto
          endchar
        </CharString>
        <CharString name="x">
          -91 -25 callsubr
          48 898 vstem
          496 644 rmoveto
          -291 438 rlineto
          -141 hlineto
          367 -531 -383 -551 rlineto
          142 hlineto
          307 458 309 -458 rlineto
          140 hlineto
          -382 551 367 531 rlineto
          -142 hlineto
          endchar
        </CharString>
        <CharString name="y">
          16 callgsubr
          815 1082 -91 callgsubr
        </CharString>
        <CharString name="yacute">
          16 callgsubr
          781 21 callgsubr
          -83 callgsubr
          265 -175 -91 callgsubr
        </CharString>
        <CharString name="ydieresis">
          -114 -437 106 1648 14 callgsubr
          215 -73 callsubr
          vstem
          297 1317 -98 callsubr
          81 -235 -91 callgsubr
        </CharString>
        <CharString name="yen">
          -31 21 -21 324 89 204 89 750 -20 hstem
          463 124 vstem
          1030 -36 callgsubr
          -137 hlineto
          -365 -725 -365 725 rlineto
          -139 hlineto
          399 -750 rlineto
          -314 -89 354 -204 -354 -89 354 -324 124 324 358 89 -358 204 358 89 -314 hlineto
          endchar
        </CharString>
        <CharString name="yen.smcp">
          -157 21 -21 255 86 83 87 hstem
          403 -84 callgsubr
          907 -26 callsubr
          -126 hlineto
          -315 -635 -315 635 rlineto
          -129 hlineto
          339 -654 rlineto
          -260 -87 302 -83 -302 -86 302 -255 120 255 302 86 -302 83 302 87 -257 hlineto
          endchar
        </CharString>
        <CharString name="z">
          -91 0 102 877 103 hstem
          88 851 vstem
          237 102 rmoveto
          657 892 rlineto
          88 -786 -103 635 vlineto
          -655 -890 rlineto
          -89 851 102 vlineto
          endchar
        </CharString>
        <CharString name="zero">
          48 -20 102 1293 102 hstem
          120 120 656 -44 callsubr
          1015 608 rmoveto
          245 vlineto
          427 -166 197 -282 -279 -168 -197 -427 vhcurveto
          -245 vlineto
          -428 170 -200 279 282 164 200 428 vhcurveto
          -119 260 rmoveto
          -274 vlineto
          -327 -107 -185 -220 -217 -112 185 327 vhcurveto
          274 vlineto
          332 110 175 217 219 110 -175 -332 vhcurveto
          endchar
        </CharString>
        <CharString name="zero.frac">
          653 -55 callgsubr
          990 -101 callgsubr
        </CharString>
        <CharString name="zero.smcp">
          -63 -16 101 994 102 hstem
          106 119 573 -84 callgsubr
          918 489 rmoveto
          189 vlineto
          330 -152 173 -255 -253 -152 -173 -330 vhcurveto
          -189 vlineto
          -331 155 -174 252 255 150 174 331 vhcurveto
          -120 205 rmoveto
          -220 vlineto
          -241 -94 -148 -191 -189 -99 148 241 vhcurveto
          220 vlineto
          242 97 143 189 191 96 -143 -242 vhcurveto
          endchar
        </CharString>
        <CharString name="zero.sup">
          -11 -55 callgsubr
          326 -101 callgsubr
        </CharString>
        <CharString name="zero.tnum">
          185 endchar
        </CharString>
      <CharString index="0">
        rmoveto
        156 vlineto
        407 -223 263 -345 -339 -227 -263 -407 vhcurveto
        -156 vlineto
        -408 229 -262 339 345 221 262 408 vhcurveto
        -122 158 rmoveto
        -158 vlineto
        -346 -161 -216 -283 -275 -170 216 346 vhcurveto
        158 vlineto
        344 168 216 275 282 164 -216 -344 vhcurveto
        endchar
      </CharString>
      <CharString index="1">
        rmoveto
        -32 vlineto
        -316 191 -229 293 292 190 229 316 vhcurveto
        32 vlineto
        315 -190 230 -294 -291 -191 -230 -315 7 callsubr
        -32 rmoveto
        32 vlineto
        233 128 -16 callgsubr
        235 129 -210 -233 vhcurveto
        -32 vlineto
        -238 -129 -205 -233 -236 -128 205 238 vhcurveto
        endchar
      </CharString>
      <CharString index="2">
        rmoveto
        73 vlineto
        288 -153 207 -275 -247 -217 -214 -334 vhcurveto
        -43 vlineto
        -310 203 -221 282 194 119 87 105 71 vhcurveto
        -76 57 rlineto
        -103 -78 -97 -45 -128 hhcurveto
        -220 -150 191 239 hvcurveto
        23 vlineto
        344 466 rmoveto
        203 101 -170 -181 4 hvcurveto
        -13 -647 vlineto
        219 26 130 145 183 hhcurveto
        endchar
      </CharString>
      <CharString index="3">
        rmoveto
        37 30 28 -28 callgsubr
        -33 38 hvcurveto
        endchar
      </CharString>
      <CharString index="4">
        rmoveto
        -52 -30 -35 -45 -45 30 -35 52 51 32 35 45 45 -32 35 -51 hvcurveto
        437 hmoveto
        -51 -31 -36 -45 -45 31 -34 51 52 31 34 45 45 -31 36 -52 hvcurveto
        return
      </CharString>
      <CharString index="5">
        123 hlineto
        -471 -46 callgsubr
        rlineto
        -114 hlineto
        -474 -1165 rlineto
        14 callsubr
        124 311 rlineto
        565 hlineto
        -524 102 rmoveto
        242 609 241 -609 rlineto
        endchar
      </CharString>
      <CharString index="6">
        rmoveto
        137 vlineto
        222 -107 115 -175 -174 -108 -115 -222 vhcurveto
        -137 vlineto
        -222 110 -115 173 175 106 115 222 vhcurveto
        -105 146 rmoveto
        -155 vlineto
        -153 -59 -88 -117 -116 -62 88 153 vhcurveto
        155 vlineto
        154 61 86 116 117 60 -86 -154 vhcurveto
        endchar
      </CharString>
      <CharString index="7">
        rmoveto
        83 -22 rlineto
        28 38 38 23 85 hhcurveto
        120 67 -69 -102 -110 -53 -70 -122 -92 -71 46 90 -9 hvcurveto
        -105 hlineto
        -147 11 130 -76 136 hhcurveto
        194 86 119 147 158 -107 96 -163 -72 -60 -23 -15 -28 hvcurveto
        29 228 rlineto
        376 90 -463 hlineto
        endchar
      </CharString>
      <CharString index="8">
        vstem
        1164 -64 callsubr
        -139 hlineto
        -324 -543 -403 543 rlineto
        -137 hlineto
        251 -339 rlineto
        -142 -64 -70 -128 -194 vvcurveto
        -442 119 475 vlineto
        138 47 95 97 52 vhcurveto
        563 -760 rlineto
        137 hlineto
        -386 520 rlineto
        return
      </CharString>
      <CharString index="9">
        rmoveto
        294 -1 196 161 318 vvcurveto
        706 -887 -101 132 vlineto
        -63 -87 -41 -146 -137 vvcurveto
        2 -154 rlineto
        -49 92 70 -13 164 hhcurveto
        108 vlineto
        -112 -48 6 21 -47 hvcurveto
        103 vlineto
        129 37 139 55 80 vhcurveto
        525 -634 hlineto
        -220 -137 -122 -233 -3 vhcurveto
        -91 -115 16 36 -119 hvcurveto
        -24 -94 rlineto
        -41 122 124 -21 104 hhcurveto
        return
      </CharString>
      <CharString index="10">
        rmoveto
        -120 -785 hlineto
        -196 -135 -99 -189 -190 -136 99 196 vhcurveto
        785 -118 -785 vlineto
        -263 190 -133 254 247 197 133 263 vhcurveto
        endchar
      </CharString>
      <CharString index="11">
        rmoveto
        -785 vlineto
        -123 -40 -98 -90 -190 hhcurveto
        -137 -113 73 231 hvcurveto
        694 -120 -692 vlineto
        -296 144 -114 212 165 112 59 98 67 vhcurveto
        return
      </CharString>
      <CharString index="12">
        748 rmoveto
        hintmask 11101100
        143 57 95 123 154 vvcurveto
        253 -185 141 -242 -243 -181 -141 -253 -154 92 -123 142 -57 vhcurveto
        hintmask 11110010
        -164 -57 -108 -134 -171 vvcurveto
        -265 202 -141 262 260 203 141 265 171 -111 133 -165 58 29 callgsubr
        -494 334 rmoveto
        181 128 111 177 175 133 -121 -171 -174 -131 -110 -176 -178 -128 110 174 vhcurveto
        hintmask 11110010
        307 -1000 rmoveto
        -202 -142 109 195 186 142 124 200 197 148 -124 -186 -195 -143 -109 -200 hvcurveto
        endchar
      </CharString>
      <CharString index="13">
        -90 6 rlineto
        -74 -49 -48 -61 vhcurveto
        -109 -43 110 -126 hhcurveto
        return
      </CharString>
      <CharString index="14">
        -110 -85 -85 -127 hvcurveto
        89 -4 rlineto
        74 49 45 62 vhcurveto
        return
      </CharString>
      <CharString index="15">
        28 -37 -32 callgsubr
        return
      </CharString>
      <CharString index="16">
        rmoveto
        -315 -910 -337 910 rlineto
        -130 hlineto
        408 -1073 -53 -144 rlineto
        -129 -45 -61 -67 -130 hhcurveto
        -11 -35 3 4 -15 hvcurveto
        -100 vlineto
        -6 18 48 -7 26 hhcurveto
        198 68 165 98 37 hvcurveto
        458 1256 rlineto
        endchar
      </CharString>
      <CharString index="17">
        956 rmoveto
        -152 -131 -64 -111 -79 hvcurveto
        361 23 203 221 348 hhcurveto
        18 104 -18 hlineto
        -470 -226 -326 -498 hvcurveto
        -128 vlineto
        -293 179 -242 293 268 163 218 280 257 -140 221 -279 vhcurveto
        -12 -874 rmoveto
        -196 -156 162 269 hvcurveto
        99 vlineto
        137 41 146 105 158 hhcurveto
        215 104 -175 -206 -215 -117 -176 -195 hvcurveto
        endchar
      </CharString>
      <CharString index="18">
        rmoveto
        -191 -279 rlineto
        105 hlineto
        231 7 callgsubr
        return
      </CharString>
      <CharString index="19">
        5 callsubr
        38 30 -31 callsubr
        -30 -33 callgsubr
        -31 29 -32 37 hvcurveto
        return
      </CharString>
      <CharString index="20">
        -53 -31 -36 -47 -46 31 -36 53 53 33 36 46 47 -33 36 -53 hvcurveto
        return
      </CharString>
      <CharString index="21">
        rmoveto
        451 577 102 -577 407 661 103 -781 -1165 785 102 vlineto
        endchar
      </CharString>
      <CharString index="22">
        -65 callgsubr
        174 hmoveto
        121 hlineto
        98 793 rlineto
        174 21 104 111 141 hhcurveto
        210 112 -119 -235 hvcurveto
        -623 -344 -101 466 713 vlineto
        310 -1 -162 162 -294 hhcurveto
        -151 -202 -35 -53 -152 hvcurveto
        32 -96 105 34 93 25 69 11 rlinecurve
        1 -5 -9 -4 -10 -4 -8 -6 rlinecurve
        -71 -49 -57 -104 -15 -113 rrcurveto
        return
      </CharString>
      <CharString index="23">
        120 vstem
        return
      </CharString>
      <CharString index="24">
        rmoveto
        -145 hlineto
        -191 -279 rlineto
        105 hlineto
        return
      </CharString>
      <CharString index="25">
        10 -20 106 -65 -21 538 92 372 100 hstemhm
        101 119 -94 120 569 120 hintmask 10111010
        return
      </CharString>
      <CharString index="26">
        rmoveto
        -118 -1066 hlineto
        -82 173 196 -43 178 hhcurveto
        return
      </CharString>
      <CharString index="27">
        630 -21 rmoveto
        266 177 181 270 hvcurveto
        428 vlineto
        208 -93 111 -175 -79 -73 -23 -40 -72 vhcurveto
        25 -86 rlineto
        29 62 52 15 60 hhcurveto
        114 58 -75 -148 hvcurveto
        -420 vlineto
        -209 -129 -139 -193 -194 -129 139 209 vhcurveto
        return
      </CharString>
      <CharString index="28">
        241 -51 49 -88 -89 vvcurveto
        -101 -97 -93 -182 -137 -157 52 170 -11 vhcurveto
        -119 hlineto
        -169 149 -155 275 242 157 124 178 172 -117 87 -262 60 vhcurveto
        -243 55 -46 60 96 vvcurveto
        90 75 98 187 vhcurveto
        return
      </CharString>
      <CharString index="29">
        rlineto
        118 -11 57 -21 -77 vvcurveto
        -85 -102 -36 -99 vhcurveto
        7 -77 rlineto
        187 107 80 119 return
      </CharString>
      <CharString index="30">
        21 -21 -6 callgsubr
        return
      </CharString>
      <CharString index="31">
        rmoveto
        -75 callsubr
        return
      </CharString>
      <CharString index="32">
        22 callgsubr
        644 -351 -101 229 hlineto
        return
      </CharString>
      <CharString index="33">
        -271 -154 232 321 hvcurveto
        184 vlineto
        330 163 220 270 250 124 -135 -235 30 vhcurveto
        123 hlineto
        299 -30 -186 176 -311 hhcurveto
        -340 -216 -263 -394 hvcurveto
        -182 vlineto
        return
      </CharString>
      <CharString index="34">
        106 -16 103 990 104 hstem
        105 119 746 118 vstem
        return
      </CharString>
      <CharString index="35">
        1456 return
      </CharString>
      <CharString index="36">
        -228 -128 174 255 hvcurveto
        137 vlineto
        262 135 166 227 212 103 -103 -181 24 vhcurveto
        -1 callgsubr
        240 -25 -161 146 -272 hhcurveto
        -294 -188 -212 -319 hvcurveto
        -136 vlineto
        return
      </CharString>
      <CharString index="37">
        109 87 84 129 hvcurveto
        return
      </CharString>
      <CharString index="38">
        192 21 -21 408 105 943 -20 return
      </CharString>
      <CharString index="39">
        -65 callgsubr
        253 hmoveto
        122 1167 -275 -101 153 hlineto
        return
      </CharString>
      <CharString index="40">
        115 -119 -118 vlineto
        -105 -31 -79 -61 -82 vhcurveto
        71 -52 rlineto
        87 78 18 callsubr
        return
      </CharString>
      <CharString index="41">
        37 6 callgsubr
        hstemhm
        152 120 578 120 hintmask 10110000
        return
      </CharString>
      <CharString index="42">
        122 vstem
        return
      </CharString>
      <CharString index="43">
        rmoveto
        -106 hlineto
        -295 -379 rlineto
        -19 vlineto
        295 -379 rlineto
        106 hlineto
        -276 389 rlineto
        return
      </CharString>
      <CharString index="44">
        77 0 104 594 105 548 18 callgsubr
        vstem
        return
      </CharString>
      <CharString index="45">
        -88 0 102 451 102 407 103 -41 callsubr
        return
      </CharString>
      <CharString index="46">
        87 285 81 270 88 hstemhm
        71 106 -92 106 339 106 -90 106 hintmask 11110010
        492 return
      </CharString>
      <CharString index="47">
        -21 -42 callgsubr
        return
      </CharString>
      <CharString index="48">
        348 hlineto
        322 222 212 321 hvcurveto
        98 vlineto
        321 -223 213 -315 vhcurveto
        419 -632 rmoveto
        -259 -162 -172 -263 vhcurveto
        -228 return
      </CharString>
      <CharString index="49">
        -542 -77 callgsubr
        212 -34 callsubr
        return
      </CharString>
      <CharString index="50">
        rmoveto
        37 -30 -92 callgsubr
        -31 29 -33 38 39 callgsubr
        vhcurveto
        endchar
      </CharString>
      <CharString index="51">
        -1456 return
      </CharString>
      <CharString index="52">
        87 636 88 hstem
        87 105 354 105 vstem
        651 return
      </CharString>
      <CharString index="53">
        21 -21 984 98 370 105 hstem
        243 119 return
      </CharString>
      <CharString index="54">
        -72 callgsubr
        -123 -56 callgsubr
        vlineto
        endchar
      </CharString>
      <CharString index="55">
        -72 callgsubr
        -123 -1246 vlineto
        -837 1246 rlineto
        -124 -56 callgsubr
        124 1246 hlineto
        836 -1246 rlineto
        endchar
      </CharString>
      <CharString index="56">
        -24 callgsubr
        893 hmoveto
        121 722 hlineto
        300 -150 145 -309 vhcurveto
        -396 -101 393 hlineto
        242 99 -100 -244 hvcurveto
        return
      </CharString>
      <CharString index="57">
        -71 callsubr
        -36 29 -27 38 hvcurveto
        return
      </CharString>
      <CharString index="58">
        vstem
        944 -64 callsubr
        -731 369 -122 -470 717 hlineto
        -445 -1066 rlineto
        133 hlineto
        448 1092 rlineto
        return
      </CharString>
      <CharString index="59">
        -46 callgsubr
        -119 -976 vlineto
        -701 976 rlineto
        -120 12 callgsubr
        978 hlineto
        701 -978 rlineto
        endchar
      </CharString>
      <CharString index="60">
        87 176 85 371 89 hstem
        76 106 353 106 vstem
        356 return
      </CharString>
      <CharString index="61">
        1165 return
      </CharString>
      <CharString index="62">
        -20 102 918 102 return
      </CharString>
      <CharString index="63">
        -303 -2 callgsubr
        return
      </CharString>
      <CharString index="64">
        rmoveto
        140 -118 -143 vlineto
        -106 -32 -78 -61 -83 vhcurveto
        71 -52 rlineto
        87 79 53 120 123 vvcurveto
        endchar
      </CharString>
      <CharString index="65">
        1066 101 return
      </CharString>
      <CharString index="66">
        -632 -25 callsubr
        168 -84 callgsubr
        return
      </CharString>
      <CharString index="67">
        hstem
        -31 callgsubr
        return
      </CharString>
      <CharString index="68">
        vstem
        343 hmoveto
        126 hlineto
        -175 1066 rlineto
        310 hlineto
        1 101 rlineto
        -525 -96 hlineto
        91 -12 rlineto
        return
      </CharString>
      <CharString index="69">
        rmoveto
        119 398 hlineto
        112 8 68 19 64 vhcurveto
        -104 hlineto
        -24 -63 -18 -58 -123 vvcurveto
        endchar
      </CharString>
      <CharString index="70">
        -106 hlineto
        276 -394 -276 -389 rlineto
        106 hlineto
        return
      </CharString>
      <CharString index="71">
        -72 callgsubr
        rmoveto
        return
      </CharString>
      <CharString index="72">
        -194 -218 -166 -101 89 115 -50 vhcurveto
        489 vlineto
        114 45 90 107 180 hhcurveto
        return
      </CharString>
      <CharString index="73">
        220 173 91 -99 -109 47 vhcurveto
        -511 vlineto
        -112 -53 -98 -83 -162 hhcurveto
        endchar
      </CharString>
      <CharString index="74">
        28 -38 -37 -72 callsubr
        return
      </CharString>
      <CharString index="75">
        -38 -72 callsubr
        return
      </CharString>
      <CharString index="76">
        185 123 return
      </CharString>
      <CharString index="77">
        1197 rmoveto
        163 85 88 162 106 73 -22 -31 70 vhcurveto
        19 103 rlineto
        39 -94 return
      </CharString>
      <CharString index="78">
        rmoveto
        -51 -31 -35 -45 -45 31 -35 51 51 32 35 45 45 -32 35 -51 hvcurveto
        endchar
      </CharString>
      <CharString index="79">
        36 37 -30 -92 callgsubr
        -31 29 return
      </CharString>
      <CharString index="80">
        89 hstem
        462 105 vstem
        694 return
      </CharString>
      <CharString index="81">
        97 13 97 hstemhm
        return
      </CharString>
      <CharString index="82">
        89 494 90 return
      </CharString>
      <CharString index="83">
        121 vstem
        return
      </CharString>
      <CharString index="84">
        -8 callsubr
        653 -44 callsubr
        508 -26 callsubr
        -354 return
      </CharString>
      <CharString index="85">
        -20 173 30 callgsubr
        169 134 -117 -33 callsubr
        return
      </CharString>
      <CharString index="86">
        -21 1167 -20 hstem
        return
      </CharString>
      <CharString index="87">
        21 callgsubr
        rmoveto
        -605 vlineto
        107 -71 -110 64 -153 hhcurveto
        -257 return
      </CharString>
      <CharString index="88">
        rmoveto
        75 74 53 110 129 vvcurveto
        181 -113 -189 vlineto
        -103 return
      </CharString>
      <CharString index="89">
        323 hvcurveto
        21 vlineto
        336 return
      </CharString>
      <CharString index="90">
        -165 -12 -139 -88 -150 hhcurveto
        return
      </CharString>
      <CharString index="91">
        210 234 return
      </CharString>
      <CharString index="92">
        248 -60 78 -67 -119 vvcurveto
        -122 -121 -84 -192 return
      </CharString>
      <CharString index="93">
        1320 return
      </CharString>
      <CharString index="94">
        rmoveto
        711 1138 -75 48 -711 -1138 rlineto
        return
      </CharString>
      <CharString index="95">
        rmoveto
        -2 callsubr
      </CharString>
      <CharString index="96">
        -217 98 -67 138 47 52 6 10 29 vhcurveto
        endchar
      </CharString>
      <CharString index="97">
        136 -17 104 393 108 return
      </CharString>
      <CharString index="98">
        1257 279 hstem
        return
      </CharString>
      <CharString index="99">
        -21 102 919 102 hstem
        return
      </CharString>
      <CharString index="100">
        119 hintmask 00000000
        return
      </CharString>
      <CharString index="101">
        -72 callgsubr
        -20 hstem
        return
      </CharString>
      <CharString index="102">
        126 123 return
      </CharString>
      <CharString index="103">
        152 hlineto
        -5 -106 -34 -1 -45 vvcurveto
        -32 29 -32 38 return
      </CharString>
      <CharString index="104">
        96 73 vhcurveto
        -550 119 1498 vlineto
        -430 return
      </CharString>
      <CharString index="105">
        rmoveto
        -71 callsubr
        return
      </CharString>
      <CharString index="106">
        119 hlineto
        return
      </CharString>
      <CharString index="107">
        6 callsubr
        -51 -31 -36 -45 -44 31 -35 51 return
      </CharString>
      <CharString index="108">
        hhcurveto
        -223 -137 -128 -232 hvcurveto
        -115 return
      </CharString>
      <CharString index="109">
        27 callgsubr
        -101 75 hstemhm
        return
      </CharString>
      <CharString index="110">
        111 -136 176 173 110 136 return
      </CharString>
      <CharString index="111">
        -197 881 rcurveline
        -122 hlineto
        200 -881 return
      </CharString>
      <CharString index="112">
        456 -24 102 return
      </CharString>
      <CharString index="113">
        -20 104 -63 -21 return
      </CharString>
      <CharString index="114">
        279 rlineto
        return
      </CharString>
      <CharString index="115">
        147 -120 -150 vlineto
        -109 -30 -81 return
      </CharString>
      <CharString index="116">
        hlineto
        -77 -410 rlineto
        100 hlineto
        77 410 rlineto
        return
      </CharString>
      <CharString index="117">
        5 callgsubr
        461 129 499 -20 return
      </CharString>
      <CharString index="118">
        21 -21 999 103 return
      </CharString>
      <CharString index="119">
        -1165 120 return
      </CharString>
      <CharString index="120">
        215 -264 vhcurveto
        return
      </CharString>
      <CharString index="121">
        160 hstem
        return
      </CharString>
      <CharString index="122">
        -1088 1190 85 189 -20 hstem
        return
      </CharString>
      <CharString index="123">
        -114 -437 106 hstem
        33 911 vstem
        return
      </CharString>
      <CharString index="124">
        48 -20 102 772 102 407 104 hstem
        return
      </CharString>
      <CharString index="125">
        105 -40 callgsubr
        return
      </CharString>
      <CharString index="126">
        -37 callsubr
        101 hstem
        return
      </CharString>
      <CharString index="127">
        -1082 120 return
      </CharString>
      <CharString index="128">
        1536 return
      </CharString>
      <CharString index="129">
        rmoveto
        122 return
      </CharString>
      <CharString index="130">
        hlineto
        277 149 131 216 return
      </CharString>
      <CharString index="131">
        193 -157 95 -254 63 vhcurveto
        return
      </CharString>
      <CharString index="132">
        -189 161 -88 257 -63 vhcurveto
        return
      </CharString>
      <CharString index="133">
        vlineto
        -422 263 -302 340 return
      </CharString>
      <CharString index="134">
        -10 callsubr
        82 128 return
      </CharString>
      <CharString index="135">
        -221 -335 hvcurveto
        -21 vlineto
        -324 return
      </CharString>
      <CharString index="136">
        vhcurveto
        hintmask 11101100
        return
      </CharString>
      <CharString index="137">
        128 hstemhm
        return
      </CharString>
      <CharString index="138">
        -178 136 -75 241 -51 return
      </CharString>
      <CharString index="139">
        -198 -98 198 -720 vlineto
        return
      </CharString>
      <CharString index="140">
        hlineto
        122 -1065 rmoveto
        964 return
      </CharString>
      <CharString index="141">
        105 -10 -20 hstemhm
        186 121 return
      </CharString>
      <CharString index="142">
        96 120 651 return
      </CharString>
      <CharString index="143">
        hstem
        189 124 return
      </CharString>
      <CharString index="144">
        687 102 hstem
        return
      </CharString>
      <CharString index="145">
        687 rmoveto
        102 return
      </CharString>
      <CharString index="146">
        37 30 28 36 return
      </CharString>
</ttFont>
